<?xml version="1.0" encoding="utf-8"?>
<!-- Generator: Adobe Illustrator 28.1.0, SVG Export Plug-In . SVG Version: 6.00 Build 0)  -->
<svg version="1.1" id="Calque_1" xmlns="http://www.w3.org/2000/svg" xmlns:xlink="http://www.w3.org/1999/xlink" x="0px" y="0px"
	 viewBox="0 0 1920 1080" style="enable-background:new 0 0 1920 1080;" xml:space="preserve">
<style type="text/css">
	.st0{fill:#100B00;}
	.st1{fill:#FFFFFF;}
	.st2{fill:#85CB33;}
</style>
<path class="st0" d="M1336.53,884.48H583.47c-17.5,0-31.69-14.19-31.69-31.69V136.2c0-17.5,14.19-31.69,31.69-31.69h753.05
	c17.5,0,31.69,14.19,31.69,31.69v716.59C1368.22,870.29,1354.03,884.48,1336.53,884.48z"/>
<g>
	<g>
		<g>
			<path class="st1" d="M1201.64,771.67l-0.36-361.11l-87.62,145.23h-33.72L984.52,367.2c-13.57-26.83-15.39-58.06-5.02-86.27
				l19.95-54.28l0.83-2.26l97.67,187.34l85.42-143.35c16.25-27.27,45.73-43.99,77.57-43.99h33.46l0.92,587.85h-52.87
				C1219.95,812.24,1201.69,794.09,1201.64,771.67z"/>
		</g>
	</g>
	<g>
		<path class="st2" d="M746.26,478.17c28.74-19.43,40.72-55.84,29.13-88.54l-58.3-164.53h-92.42l101.08,266.93L746.26,478.17z"/>
		<path class="st2" d="M892.83,225.09L672.04,812.24l70.77,1.53c13.55,0.29,25.79-8.06,30.45-20.79L981.2,225.09H892.83z"/>
	</g>
</g>
</svg>
