<?xml version="1.0" encoding="utf-8"?>
<!-- Generator: Adobe Illustrator 28.1.0, SVG Export Plug-In . SVG Version: 6.00 Build 0)  -->
<svg version="1.1" id="Calque_1" xmlns="http://www.w3.org/2000/svg" xmlns:xlink="http://www.w3.org/1999/xlink" x="0px" y="0px"
	 viewBox="0 0 1920 1080" style="enable-background:new 0 0 1920 1080;" xml:space="preserve">
<style type="text/css">
	.st0{fill:#100B00;}
	.st1{fill:#85CB33;}
	.st2{fill:#FFFFFF;}
</style>
<path class="st0" d="M1853.22,827.56H87.75c-17.5,0-31.69-14.19-31.69-31.69V260c0-17.5,14.19-31.69,31.69-31.69h1765.48
	c17.5,0,31.69,14.19,31.69,31.69v535.87C1884.91,813.37,1870.73,827.56,1853.22,827.56z"/>
<g>
	<g>
		<path class="st1" d="M256.66,489.67c26.65-18.02,37.76-51.78,27.02-82.11l-54.06-152.58h-85.7l93.74,247.54L256.66,489.67z"/>
		<path class="st1" d="M392.59,254.98L187.83,799.47l65.63,1.42c12.57,0.27,23.91-7.48,28.23-19.28l192.84-526.63H392.59z"/>
	</g>
	<g>
		<path class="st2" d="M667.08,598.57l-0.27-169.3l-82.37,143.27h-4.83l-82.64-142.73v168.76h-8.85V410.76h7.51l86.39,150.25
			l86.12-150.25h7.51l0.27,187.81H667.08z"/>
		<path class="st2" d="M871.52,590.25v8.32h-126.9V410.76h123.15v8.32H753.74v79.95h101.95v8.32H753.74v82.9H871.52z"/>
		<path class="st2" d="M1073.82,410.76v187.81h-7.51L932.96,427.4v171.18h-9.12V410.76h7.51l133.34,171.18V410.76H1073.82z"/>
		<path class="st2" d="M1178.18,419.08h-68.95v-8.32h146.76v8.32h-68.95v179.49h-8.85V419.08z"/>
		<path class="st2" d="M1317.03,587.3c-14.76-8.22-26.34-19.59-34.74-34.08c-8.41-14.49-12.61-30.67-12.61-48.56
			c0-17.88,4.2-34.07,12.61-48.56c8.4-14.49,19.99-25.84,34.74-34.08c14.76-8.23,31.26-12.34,49.5-12.34
			c18.24,0,34.79,4.12,49.63,12.34c14.85,8.23,26.47,19.59,34.88,34.08c8.4,14.49,12.61,30.68,12.61,48.56
			c0,17.89-4.2,34.08-12.61,48.56c-8.41,14.49-20.03,25.85-34.88,34.08c-14.85,8.23-31.39,12.34-49.63,12.34
			C1348.28,599.64,1331.78,595.53,1317.03,587.3z M1411.33,580.06c13.41-7.51,23.97-17.88,31.66-31.12
			c7.69-13.24,11.54-27.99,11.54-44.27c0-16.27-3.85-31.03-11.54-44.27c-7.69-13.24-18.24-23.61-31.66-31.12
			c-13.41-7.51-28.35-11.27-44.81-11.27c-16.46,0-31.35,3.75-44.67,11.27c-13.33,7.51-23.84,17.89-31.52,31.12
			c-7.69,13.24-11.54,28-11.54,44.27c0,16.28,3.84,31.04,11.54,44.27c7.69,13.24,18.2,23.61,31.52,31.12
			c13.32,7.51,28.21,11.27,44.67,11.27C1382.98,591.33,1397.92,587.57,1411.33,580.06z"/>
		<path class="st2" d="M1645.29,598.57l-46.41-64.66c-6.08,1.07-12.88,1.61-20.39,1.61h-56.07v63.05h-9.12V410.76h65.2
			c23.43,0,41.72,5.5,54.87,16.5c13.15,11,19.72,26.25,19.72,45.75c0,15.03-3.89,27.59-11.67,37.7
			c-7.78,10.11-18.91,17.13-33.4,21.06l48.02,66.81H1645.29z M1579.02,527.2c20.93,0,37.02-4.69,48.29-14.08
			c11.27-9.39,16.9-22.76,16.9-40.11c0-17.17-5.63-30.45-16.9-39.84c-11.27-9.39-27.37-14.09-48.29-14.09h-56.61V527.2H1579.02z"/>
		<path class="st2" d="M1714.64,592.4c-12.25-4.83-21.69-11.09-28.3-18.78l4.83-6.44c6.26,7.16,14.98,13.01,26.16,17.57
			c11.18,4.56,23.12,6.84,35.82,6.84c18.78,0,32.95-3.71,42.52-11.13c9.57-7.42,14.35-16.95,14.35-28.58
			c0-8.94-2.51-16.14-7.51-21.6c-5.01-5.45-11.18-9.57-18.51-12.34c-7.34-2.77-17.35-5.68-30.05-8.72
			c-13.59-3.4-24.51-6.71-32.73-9.93c-8.23-3.22-15.2-8.14-20.93-14.76c-5.73-6.61-8.59-15.47-8.59-26.56
			c0-8.76,2.32-16.81,6.97-24.14c4.65-7.33,11.76-13.19,21.33-17.58c9.57-4.38,21.51-6.57,35.82-6.57c10.2,0,20.26,1.52,30.18,4.56
			c9.93,3.04,18.38,7.24,25.35,12.61l-4.02,7.25c-7.34-5.37-15.52-9.43-24.55-12.21c-9.03-2.77-17.93-4.16-26.7-4.16
			c-18.24,0-32.06,3.8-41.45,11.4c-9.39,7.6-14.09,17.22-14.09,28.84c0,9.12,2.55,16.41,7.65,21.87c5.1,5.46,11.36,9.62,18.78,12.48
			c7.42,2.86,17.39,5.81,29.91,8.85c13.59,3.4,24.5,6.66,32.73,9.79c8.22,3.13,15.16,7.96,20.79,14.49
			c5.63,6.53,8.45,15.25,8.45,26.16c0,8.77-2.37,16.81-7.11,24.15c-4.74,7.34-12.03,13.15-21.87,17.44
			c-9.84,4.29-22,6.44-36.49,6.44C1739.81,599.64,1726.89,597.23,1714.64,592.4z"/>
	</g>
</g>
</svg>
