<?xml version="1.0" encoding="utf-8"?>
<!-- Generator: Adobe Illustrator 28.1.0, SVG Export Plug-In . SVG Version: 6.00 Build 0)  -->
<svg version="1.1" id="Calque_1" xmlns="http://www.w3.org/2000/svg" xmlns:xlink="http://www.w3.org/1999/xlink" x="0px" y="0px"
	 viewBox="0 0 1920 1080" style="enable-background:new 0 0 1920 1080;" xml:space="preserve">
<style type="text/css">
	.st0{fill:#85CB33;}
	.st1{fill:#100B00;}
</style>
<g>
	<path class="st0" d="M197.91,484.17c28.31-19.14,40.11-55,28.7-87.22l-57.43-162.08H78.14l99.57,262.95L197.91,484.17z"/>
	<path class="st0" d="M342.3,234.87L124.8,813.26l69.72,1.51c13.35,0.29,25.4-7.94,29.99-20.48l204.85-559.42H342.3z"/>
</g>
<g>
	<path class="st1" d="M633.88,599.85l-0.28-179.83L546.1,572.21h-5.13l-87.78-151.62v179.27h-9.4v-199.5h7.98l91.77,159.6
		l91.48-159.6H643l0.28,199.5H633.88z"/>
	<path class="st1" d="M851.05,591.02v8.84h-134.8v-199.5h130.82v8.84H725.94v84.93h108.3v8.84h-108.3v88.06H851.05z"/>
	<path class="st1" d="M1065.94,400.35v199.5h-7.98L916.32,418.02v181.83h-9.69v-199.5h7.98l141.65,181.83V400.35H1065.94z"/>
	<path class="st1" d="M1176.8,409.19h-73.25v-8.84h155.9v8.84h-73.24v190.66h-9.4V409.19z"/>
	<path class="st1" d="M1324.29,587.88c-15.68-8.74-27.98-20.81-36.91-36.2c-8.93-15.39-13.4-32.58-13.4-51.58
		c0-19,4.46-36.19,13.4-51.58c8.93-15.39,21.23-27.45,36.91-36.2c15.67-8.74,33.2-13.11,52.58-13.11s36.95,4.37,52.72,13.11
		c15.77,8.74,28.12,20.81,37.05,36.2c8.93,15.39,13.39,32.59,13.39,51.58c0,19-4.47,36.2-13.39,51.58
		c-8.93,15.39-21.28,27.46-37.05,36.2c-15.77,8.74-33.34,13.11-52.72,13.11S1339.96,596.63,1324.29,587.88z M1424.47,580.19
		c14.25-7.98,25.46-18.99,33.63-33.06c8.17-14.06,12.25-29.74,12.25-47.03c0-17.29-4.09-32.96-12.25-47.02
		c-8.17-14.06-19.38-25.08-33.63-33.06c-14.25-7.98-30.12-11.97-47.59-11.97c-17.48,0-33.3,3.99-47.45,11.97
		c-14.16,7.98-25.32,19-33.49,33.06c-8.17,14.06-12.26,29.74-12.26,47.02c0,17.29,4.08,32.97,12.26,47.03
		c8.17,14.06,19.33,25.08,33.49,33.06c14.15,7.98,29.97,11.97,47.45,11.97C1394.35,592.16,1410.22,588.17,1424.47,580.19z"/>
	<path class="st1" d="M1672.98,599.85l-49.3-68.68c-6.46,1.14-13.68,1.71-21.66,1.71h-59.56v66.98h-9.69v-199.5h69.26
		c24.89,0,44.32,5.84,58.28,17.53c13.96,11.69,20.95,27.89,20.95,48.59c0,15.96-4.13,29.31-12.4,40.04
		c-8.27,10.74-20.09,18.2-35.48,22.37l51.01,70.97H1672.98z M1602.59,524.04c22.23,0,39.33-4.98,51.3-14.96
		c11.97-9.98,17.96-24.18,17.96-42.61c0-18.24-5.98-32.35-17.96-42.32c-11.97-9.98-29.07-14.96-51.3-14.96h-60.13v114.85H1602.59z"
		/>
	<path class="st1" d="M1746.65,593.3c-13.02-5.13-23.04-11.78-30.07-19.95l5.13-6.84c6.65,7.6,15.91,13.82,27.79,18.67
		c11.87,4.85,24.56,7.27,38.05,7.27c19.95,0,35.01-3.94,45.17-11.83c10.16-7.88,15.25-18,15.25-30.35c0-9.5-2.66-17.14-7.98-22.94
		c-5.32-5.79-11.88-10.16-19.67-13.11c-7.79-2.94-18.43-6.03-31.92-9.26c-14.44-3.61-26.03-7.12-34.77-10.55
		c-8.74-3.42-16.15-8.64-22.23-15.68c-6.08-7.02-9.12-16.43-9.12-28.21c0-9.31,2.47-17.85,7.41-25.65
		c4.94-7.79,12.49-14.01,22.66-18.67c10.16-4.65,22.84-6.98,38.05-6.98c10.83,0,21.52,1.62,32.06,4.85
		c10.55,3.23,19.52,7.69,26.93,13.39l-4.27,7.7c-7.79-5.7-16.49-10.02-26.08-12.97c-9.6-2.94-19.05-4.41-28.36-4.41
		c-19.38,0-34.06,4.04-44.03,12.11c-9.97,8.08-14.96,18.29-14.96,30.64c0,9.69,2.71,17.43,8.12,23.23
		c5.42,5.8,12.06,10.22,19.95,13.25c7.88,3.04,18.48,6.18,31.78,9.41c14.44,3.61,26.03,7.08,34.77,10.4
		c8.74,3.33,16.1,8.46,22.09,15.39c5.98,6.94,8.98,16.2,8.98,27.79c0,9.31-2.52,17.86-7.55,25.65
		c-5.04,7.79-12.78,13.96-23.23,18.52c-10.45,4.56-23.37,6.84-38.76,6.84C1773.39,600.99,1759.67,598.43,1746.65,593.3z"/>
</g>
</svg>
