<svg width="380" height="282" viewBox="0 0 380 282" fill="none" xmlns="http://www.w3.org/2000/svg">
<path d="M85.5773 13.2258L66.9558 45.7394L53.8132 20.4077C51.1552 15.2857 45.8711 12.0725 40.1063 12.0725V13.0031C44.9017 14.9198 48.2907 19.6084 48.2907 25.0923V40.6134L63.3483 68.1362H70.2773L85.2912 42.9954V92.9549H96.5507V24.2134C96.5507 18.1489 91.6401 13.2297 85.5773 13.2297V13.2258Z" fill="white"/>
<path d="M37.3609 12.9832C35.8671 12.3986 34.2421 12.0725 32.5377 12.0725V92.9509H45.5453V24.8537C45.5453 19.4692 42.1563 14.8642 37.3609 12.9832Z" fill="#21D62D"/>
<path d="M30.15 26.2098V48.6703L8.38196 12.0686H15.7241C19.2481 12.0686 22.5219 13.8939 24.3772 16.8884L30.15 26.2098Z" fill="#21D62D"/>
<path d="M133.44 88.7196V90.4853H106.507V50.5869H132.645V52.3526H108.446V69.3371H130.083V71.1028H108.446V88.7157H133.444L133.44 88.7196Z" fill="white"/>
<path d="M176.376 50.5869V90.4853H174.783L146.483 54.1222V90.4853H144.548V50.5869H146.142L174.441 86.95V50.5869H176.376Z" fill="white"/>
<path d="M198.526 52.3526H183.889V50.5869H215.037V52.3526H200.401V90.4853H198.522V52.3526H198.526Z" fill="white"/>
<path d="M227.997 88.0913C224.867 86.3456 222.407 83.9317 220.623 80.8537C218.839 77.7757 217.946 74.3359 217.946 70.5381C217.946 66.7404 218.836 63.3005 220.623 60.2225C222.407 57.1446 224.867 54.7307 227.997 52.9849C231.128 51.2391 234.632 50.3643 238.502 50.3643C242.372 50.3643 245.884 51.2391 249.038 52.9849C252.189 54.7347 254.656 57.1446 256.44 60.2225C258.224 63.3005 259.118 66.7404 259.118 70.5381C259.118 74.3359 258.224 77.7757 256.44 80.8537C254.656 83.9317 252.189 86.3456 249.038 88.0913C245.888 89.8411 242.376 90.712 238.502 90.712C234.628 90.712 231.128 89.8371 227.997 88.0913ZM248.013 86.5524C250.862 84.9577 253.099 82.7546 254.732 79.9431C256.364 77.1315 257.179 73.9979 257.179 70.5381C257.179 67.0784 256.36 63.9447 254.732 61.1332C253.099 58.3217 250.858 56.1186 248.013 54.5199C245.165 52.9253 241.994 52.126 238.502 52.126C235.01 52.126 231.847 52.9253 229.022 54.5199C226.193 56.1146 223.965 58.3217 222.332 61.1332C220.699 63.9447 219.884 67.0824 219.884 70.5381C219.884 73.9939 220.699 77.1315 222.332 79.9431C223.965 82.7546 226.193 84.9577 229.022 86.5524C231.851 88.147 235.01 88.9463 238.502 88.9463C241.994 88.9463 245.165 88.147 248.013 86.5524Z" fill="white"/>
<path d="M297.668 90.4853L287.815 76.7497C286.523 76.9764 285.081 77.0917 283.488 77.0917H271.585V90.4853H269.65V50.5869H283.488C288.462 50.5869 292.344 51.7561 295.133 54.0904C297.922 56.4287 299.316 59.6658 299.316 63.8095C299.316 67.0028 298.49 69.6712 296.841 71.8186C295.188 73.966 292.828 75.4573 289.753 76.2924L299.948 90.4853H297.672H297.668ZM283.603 75.3221C288.045 75.3221 291.462 74.3239 293.854 72.3316C296.245 70.3353 297.441 67.4959 297.441 63.8095C297.441 60.1231 296.245 57.3394 293.854 55.347C291.462 53.3507 288.045 52.3526 283.603 52.3526H271.589V75.3221H283.603Z" fill="white"/>
<path d="M312.388 89.1731C309.785 88.1471 307.783 86.8189 306.38 85.1844L307.405 83.8164C308.732 85.3355 310.584 86.5803 312.956 87.5506C315.328 88.5209 317.862 89.006 320.556 89.006C324.541 89.006 327.548 88.2187 329.583 86.6399C331.613 85.0651 332.63 83.041 332.63 80.5675C332.63 78.6666 332.098 77.1395 331.037 75.9783C329.972 74.8211 328.665 73.9462 327.107 73.3577C325.55 72.7691 323.425 72.1528 320.731 71.5045C317.846 70.7848 315.53 70.0809 313.782 69.3969C312.034 68.7129 310.556 67.667 309.34 66.2632C308.124 64.8595 307.517 62.9785 307.517 60.6203C307.517 58.7592 308.009 57.0492 308.999 55.4903C309.984 53.9314 311.494 52.6867 313.524 51.7562C315.554 50.8256 318.089 50.3604 321.124 50.3604C323.289 50.3604 325.423 50.6825 327.529 51.3307C329.634 51.9789 331.43 52.8697 332.908 54.011L332.054 55.55C330.496 54.4086 328.76 53.5457 326.841 52.9571C324.922 52.3686 323.035 52.0743 321.176 52.0743C317.302 52.0743 314.37 52.8816 312.38 54.4961C310.385 56.1107 309.392 58.1547 309.392 60.6242C309.392 62.5609 309.932 64.1118 311.013 65.2691C312.094 66.4303 313.424 67.3131 314.998 67.9215C316.571 68.53 318.689 69.1583 321.347 69.8025C324.231 70.5263 326.547 71.2182 328.295 71.8823C330.04 72.5464 331.514 73.5724 332.709 74.9603C333.905 76.3482 334.501 78.2013 334.501 80.5158C334.501 82.3769 333.997 84.0869 332.991 85.6457C331.986 87.2046 330.437 88.4374 328.351 89.352C326.261 90.2627 323.683 90.72 320.608 90.72C317.723 90.72 314.978 90.207 312.38 89.181L312.388 89.1731Z" fill="white"/>
</svg>
