<?xml version="1.0" encoding="utf-8"?>
<!-- Generator: Adobe Illustrator 28.1.0, SVG Export Plug-In . SVG Version: 6.00 Build 0)  -->
<svg version="1.1" id="Calque_1" xmlns="http://www.w3.org/2000/svg" xmlns:xlink="http://www.w3.org/1999/xlink" x="0px" y="0px"
	 viewBox="0 0 1920 1080" style="enable-background:new 0 0 1920 1080;" xml:space="preserve">
<style type="text/css">
	.st0{fill:#85CB33;}
</style>
<g>
	<g>
		<g>
			<path d="M1272.17,875.21l-0.51-508.4L1148.3,571.29h-47.47L966.5,305.78c-19.11-37.77-21.67-81.74-7.07-121.46l28.09-76.42
				l1.17-3.19l137.51,263.75l120.26-201.82c22.88-38.4,64.39-61.94,109.21-61.94h47.11l1.3,827.62h-74.43
				C1297.95,932.33,1272.25,906.78,1272.17,875.21z"/>
		</g>
	</g>
	<g>
		<path class="st0" d="M631.05,462c40.47-27.36,57.33-78.61,41.01-124.65l-82.08-231.64H459.87l142.31,375.81L631.05,462z"/>
		<path class="st0" d="M837.4,105.71L526.56,932.33l99.64,2.16c19.08,0.41,36.3-11.35,42.86-29.27l292.76-799.51H837.4z"/>
	</g>
</g>
</svg>
