<svg width="261" height="63" viewBox="0 0 261 63" fill="none" xmlns="http://www.w3.org/2000/svg">
<g clip-path="url(#clip0_40_28)">
<path d="M61.7812 0.899001L46.8767 26.2242L36.3572 6.49279C34.2314 2.50388 30.0003 0 25.3865 0V0.72253C29.2245 2.21754 31.9347 5.87014 31.9347 10.1421V22.232L43.9854 43.6715H49.5323L61.5488 24.0866V63H70.5611V9.45616C70.5611 4.73141 66.6308 0.902331 61.7812 0.902331V0.899001Z" fill="white"/>
<path d="M23.1923 0.709212C21.9995 0.253052 20.6974 0 19.3303 0V63H29.7405V9.95893C29.7405 5.7636 27.0269 2.17758 23.1923 0.712542V0.709212Z" fill="#21D62D"/>
<path d="M17.4198 11.0144V28.5117L0 0H5.87496C8.69453 0 11.3125 1.42175 12.7991 3.75583L17.4198 11.0144Z" fill="#21D62D"/>
<path d="M100.083 59.7037V61.0788H78.5276V30H99.4437V31.3751H80.0758V44.6071H97.3931V45.9822H80.0758V59.7003H100.083V59.7037Z" fill="white"/>
<path d="M134.447 30.0033V61.0821H133.173L110.524 32.7569V61.0821H108.976V30.0033H110.25L132.899 58.3285V30.0033H134.447Z" fill="white"/>
<path d="M152.171 31.3784H140.459V30.0033H165.387V31.3784H153.675V61.0821H152.171V31.3784Z" fill="white"/>
<path d="M175.757 59.2175C173.251 57.8557 171.283 55.9778 169.854 53.5771C168.426 51.1798 167.711 48.5028 167.711 45.5427C167.711 42.5827 168.426 39.9056 169.854 37.5083C171.283 35.111 173.248 33.2331 175.757 31.8679C178.262 30.5061 181.064 29.8268 184.164 29.8268C187.264 29.8268 190.073 30.5094 192.595 31.8679C195.118 33.2297 197.093 35.1076 198.522 37.5083C199.95 39.9056 200.665 42.586 200.665 45.5427C200.665 48.4994 199.95 51.1831 198.522 53.5771C197.093 55.9745 195.118 57.8557 192.595 59.2175C190.073 60.5793 187.264 61.2586 184.164 61.2586C181.064 61.2586 178.262 60.5793 175.757 59.2175ZM191.775 58.0155C194.055 56.7736 195.846 55.0555 197.151 52.8646C198.457 50.6737 199.109 48.2331 199.109 45.5394C199.109 42.8457 198.457 40.4051 197.151 38.2142C195.846 36.0233 194.051 34.3052 191.775 33.0632C189.496 31.8213 186.96 31.1987 184.164 31.1987C181.368 31.1987 178.839 31.8213 176.577 33.0632C174.314 34.3052 172.527 36.0233 171.221 38.2142C169.916 40.4051 169.263 42.8457 169.263 45.5394C169.263 48.2331 169.916 50.6737 171.221 52.8646C172.527 55.0555 174.311 56.7702 176.577 58.0155C178.839 59.2575 181.368 59.8801 184.164 59.8801C186.96 59.8801 189.496 59.2575 191.775 58.0155Z" fill="white"/>
<path d="M231.512 61.0821L223.628 50.3807C222.596 50.5571 221.441 50.647 220.166 50.647H210.641V61.0821H209.093V30.0033H220.166C224.144 30.0033 227.254 30.9123 229.486 32.7336C231.717 34.5549 232.835 37.0788 232.835 40.3052C232.835 42.7924 232.175 44.8701 230.853 46.5416C229.53 48.2131 227.64 49.3751 225.179 50.0277L233.337 61.0821H231.516H231.512ZM220.258 49.2719C223.812 49.2719 226.547 48.4961 228.46 46.9411C230.374 45.3862 231.331 43.1753 231.331 40.3019C231.331 37.4284 230.374 35.2641 228.46 33.7092C226.547 32.1542 223.812 31.3784 220.258 31.3784H210.641V49.2719H220.258Z" fill="white"/>
<path d="M243.293 60.0599C241.212 59.2608 239.609 58.2253 238.484 56.9533L239.305 55.8879C240.368 57.0732 241.847 58.0421 243.748 58.7946C245.644 59.5504 247.674 59.9267 249.831 59.9267C253.02 59.9267 255.429 59.314 257.053 58.0854C258.676 56.8568 259.489 55.2819 259.489 53.3573C259.489 51.879 259.062 50.687 258.215 49.7846C257.364 48.8823 256.314 48.2031 255.07 47.7436C253.823 47.2841 252.124 46.8046 249.968 46.3018C247.657 45.7391 245.805 45.1931 244.407 44.6603C243.009 44.1276 241.823 43.3152 240.853 42.2197C239.879 41.1243 239.393 39.6592 239.393 37.8246C239.393 36.3762 239.787 35.0443 240.579 33.829C241.369 32.617 242.575 31.6481 244.202 30.9189C245.826 30.1931 247.856 29.8301 250.286 29.8301C252.018 29.8301 253.727 30.0832 255.412 30.586C257.097 31.0887 258.532 31.7846 259.718 32.6736L259.035 33.8723C257.787 32.9833 256.4 32.3107 254.865 31.8512C253.331 31.3917 251.82 31.162 250.33 31.162C247.23 31.162 244.886 31.7913 243.29 33.0499C241.694 34.3085 240.897 35.9001 240.897 37.8213C240.897 39.3296 241.331 40.5382 242.196 41.4406C243.061 42.3429 244.124 43.0321 245.385 43.5049C246.646 43.9778 248.337 44.4672 250.467 44.97C252.774 45.5327 254.629 46.0721 256.027 46.5915C257.425 47.1109 258.601 47.9101 259.558 48.9889C260.515 50.071 260.993 51.5127 260.993 53.3174C260.993 54.7691 260.59 56.101 259.787 57.3129C258.98 58.5283 257.743 59.4872 256.072 60.1997C254.4 60.9089 252.336 61.2652 249.875 61.2652C247.565 61.2652 245.371 60.8657 243.29 60.0665L243.293 60.0599Z" fill="white"/>
</g>
<defs>
<clipPath id="clip0_40_28">
<rect width="261" height="63" fill="white"/>
</clipPath>
</defs>
</svg>
