<svg width="32" height="32" viewBox="0 0 30 27" fill="none" xmlns="http://www.w3.org/2000/svg">
<path d="M28.6175 13.3362L23.1368 7.45294L17.656 1.56971C16.2098 0.0171283 13.7886 0.0171283 12.3423 1.56971L6.86159 7.45294L1.38086 13.3362C0.730604 14.0348 0.886563 14.8286 1.55301 15.4016C2.23651 15.9886 2.58592 16.792 2.58592 17.6101V23.3625C2.58592 25.2605 4.08927 26.7991 5.94373 26.7991H11.2131V18.9342C11.2131 17.6311 12.2452 16.5748 13.5184 16.5748H16.4816C17.7549 16.5748 18.7869 17.6311 18.7869 18.9342V26.7991H24.0563C25.9108 26.7991 27.4141 25.2605 27.4141 23.3625V17.6101C27.4141 16.792 27.7635 15.9895 28.447 15.4016C29.1135 14.8286 29.2695 14.0348 28.6192 13.3362H28.6175Z" fill="white"/>
</svg>
