<svg width="32" height="32" viewBox="0 0 26 25" fill="none" xmlns="http://www.w3.org/2000/svg">
<path d="M23.0135 5.67407H3.98231C3.19156 5.67407 2.55054 6.31295 2.55054 7.10104C2.55054 7.88913 3.19156 8.52801 3.98231 8.52801H23.0135C23.8043 8.52801 24.4453 7.88913 24.4453 7.10104C24.4453 6.31295 23.8043 5.67407 23.0135 5.67407Z" fill="white"/>
<path d="M23.0135 11.1681H3.98231C3.19156 11.1681 2.55054 11.807 2.55054 12.5951C2.55054 13.3831 3.19156 14.022 3.98231 14.022H23.0135C23.8043 14.022 24.4453 13.3831 24.4453 12.5951C24.4453 11.807 23.8043 11.1681 23.0135 11.1681Z" fill="white"/>
<path d="M23.0135 16.6621H3.98231C3.19141 16.6621 2.55054 17.3008 2.55054 18.0891C2.55054 18.8773 3.19141 19.516 3.98231 19.516H23.0135C23.8044 19.516 24.4453 18.8773 24.4453 18.0891C24.4453 17.3008 23.8044 16.6621 23.0135 16.6621Z" fill="white"/>
</svg>
