<svg width="32" height="32" viewBox="0 0 38 36" fill="none" xmlns="http://www.w3.org/2000/svg">
<path d="M12.9185 23.5463H29.4379C29.7529 23.5463 30.0079 23.2891 30.0079 22.9715V9.48012C30.0079 9.16249 29.7529 8.90527 29.4379 8.90527H2.86322C2.54827 8.90527 2.29321 9.16249 2.29321 9.48012V22.9715C2.29321 23.2891 2.54827 23.5463 2.86322 23.5463H6.03785C6.461 23.5463 6.73634 23.9955 6.54795 24.3774L4.66501 28.1919C4.39836 28.7316 5.03116 29.2685 5.51325 28.9109L12.5803 23.6593C12.6779 23.5863 12.7967 23.5473 12.9185 23.5473V23.5463Z" fill="#21D62D"/>
<path d="M35.1959 11.3947H30.9836V24.2303C30.9836 24.5703 30.7102 24.8451 30.374 24.8451H12.6904C12.5599 24.8451 12.4334 24.887 12.3281 24.9649L11.0605 25.9071C11.1485 25.987 11.2596 26.0347 11.3813 26.0347H26.185C26.2941 26.0347 26.4004 26.0737 26.4883 26.1468L32.8212 31.3983C33.253 31.7559 33.8201 31.22 33.5815 30.6793L31.8947 26.8648C31.7256 26.4829 31.9729 26.0338 32.3516 26.0338H35.1968C35.4789 26.0338 35.7079 25.7765 35.7079 25.4589V11.9695C35.7079 11.6519 35.4789 11.3947 35.1968 11.3947H35.1959Z" fill="#A5CBC3"/>
</svg>
