<svg width="32" height="32" viewBox="0 0 34 33" fill="none" xmlns="http://www.w3.org/2000/svg">
<path d="M31.8349 13.6331H26.7871C26.6593 13.2914 26.5126 12.9584 26.3492 12.6343L29.7911 9.21974C30.2846 8.73132 30.2846 7.93751 29.7911 7.44909L26.7215 4.40391C26.2281 3.91439 25.429 3.91439 24.9367 4.40391L21.3814 7.92979C21.1547 7.82946 20.9246 7.73795 20.6901 7.65416V2.68728C20.6901 1.996 20.1255 1.43481 19.4276 1.43481H15.0866C14.3898 1.43481 13.8241 1.9949 13.8241 2.68728V7.65416C13.5407 7.75449 13.264 7.86805 12.9939 7.99153L9.37638 4.40281C8.88293 3.91329 8.08385 3.91329 7.59152 4.40281L4.52192 7.44798C4.02847 7.9364 4.02847 8.73022 4.52192 9.21864L8.0983 12.7666C7.9616 13.0477 7.83713 13.3366 7.72711 13.6309H2.67926C1.98244 13.6309 1.41675 14.191 1.41675 14.8834V19.1899C1.41675 19.8812 1.98132 20.4423 2.67926 20.4423H7.64598C7.74044 20.7136 7.84602 20.9804 7.96272 21.2406L4.31965 24.8546C3.8262 25.3442 3.8262 26.1369 4.31965 26.6253L7.38925 29.6705C7.8827 30.1589 8.68177 30.1589 9.17411 29.6705L12.7049 26.1678C13.0661 26.3475 13.4395 26.5073 13.8241 26.644V31.6109C13.8241 32.3022 14.3887 32.8634 15.0866 32.8634H19.4276C20.1244 32.8634 20.6901 32.3033 20.6901 31.6109V26.644C21.0269 26.5239 21.3558 26.3883 21.6748 26.235L25.1389 29.6716C25.6324 30.16 26.4315 30.16 26.9238 29.6716L29.9934 26.6264C30.4868 26.1369 30.4868 25.3442 29.9934 24.8557L26.4893 21.3795C26.6315 21.0752 26.7582 20.7632 26.8693 20.4434H31.8361C32.5329 20.4434 33.0986 19.8834 33.0986 19.191V14.8845C33.0986 14.1932 32.534 13.632 31.8361 13.632L31.8349 13.6331Z" fill="#21D62D"/>
</svg>
