<svg width="32" height="32" viewBox="0 0 48 46" fill="none" xmlns="http://www.w3.org/2000/svg">
<path d="M29.0988 18.9025L29.0979 18.9016C28.6916 18.498 28.033 18.498 27.6267 18.9016L8.32093 38.0785C7.91468 38.482 7.91468 39.1362 8.32093 39.5398L8.32182 39.5407C8.72806 39.9442 9.38672 39.9442 9.79297 39.5407L29.0988 20.3638C29.505 19.9603 29.505 19.306 29.0988 18.9025Z" fill="#A5CBC3"/>
<path d="M28.0996 8.98861C22.036 8.98861 17.1205 13.8713 17.1205 19.8945C17.1205 25.9176 22.036 30.8003 28.0996 30.8003C34.1633 30.8003 39.0788 25.9176 39.0788 19.8945C39.0788 13.8713 34.1633 8.98861 28.0996 8.98861ZM28.0996 29.2677C22.8883 29.2677 18.6633 25.071 18.6633 19.8945C18.6633 14.7179 22.8883 10.5212 28.0996 10.5212C33.311 10.5212 37.536 14.7179 37.536 19.8945C37.536 25.071 33.311 29.2677 28.0996 29.2677Z" fill="#21D62D"/>
</svg>
