<svg width="32" height="32" viewBox="0 0 48 46" fill="none" xmlns="http://www.w3.org/2000/svg">
<path d="M28.9926 18.9024L28.9917 18.9016C28.594 18.498 27.949 18.498 27.5512 18.9016L8.64764 38.0784C8.24985 38.482 8.24985 39.1362 8.64764 39.5398L8.6485 39.5406C9.04629 39.9442 9.69122 39.9442 10.089 39.5406L28.9926 20.3638C29.3904 19.9602 29.3904 19.306 28.9926 18.9024Z" fill="white"/>
<path d="M28.0143 8.98865C22.0771 8.98865 17.2639 13.8714 17.2639 19.8945C17.2639 25.9176 22.0771 30.8003 28.0143 30.8003C33.9516 30.8003 38.7648 25.9176 38.7648 19.8945C38.7648 13.8714 33.9516 8.98865 28.0143 8.98865ZM28.0143 29.2678C22.9116 29.2678 18.7746 25.071 18.7746 19.8945C18.7746 14.718 22.9116 10.5212 28.0143 10.5212C33.1171 10.5212 37.2541 14.718 37.2541 19.8945C37.2541 25.071 33.1171 29.2678 28.0143 29.2678Z" fill="white"/>
</svg>
