<svg width="32" height="32" viewBox="0 0 121 117" fill="none" xmlns="http://www.w3.org/2000/svg">
<path d="M60.6011 71.5097C71.8771 71.5097 81.0174 62.3489 81.0174 51.0444C81.0174 39.7399 71.8771 30.5823 60.6011 30.5823C49.3251 30.5823 40.1817 39.7431 40.1817 51.0444C40.1817 62.3458 49.3219 71.5097 60.6011 71.5097ZM60.6011 32.9319C70.5817 32.9319 78.6731 41.0414 78.6731 51.0444C78.6731 61.0475 70.5817 69.1601 60.6011 69.1601C50.6204 69.1601 42.526 61.0507 42.526 51.0444C42.526 41.0382 50.6173 32.9319 60.6011 32.9319Z" fill="#21D62D"/>
<path d="M60.3073 77.9219C47.3283 77.9219 36.2355 85.968 31.6923 97.3517C32.2136 97.7317 32.7412 98.1022 33.2752 98.4631C36.5799 86.614 47.4294 77.925 60.3073 77.925V77.9219Z" fill="#21D62D"/>
<path d="M86.8592 100.772C86.8592 100.772 86.8759 100.759 86.886 100.753C86.8759 100.759 86.8659 100.763 86.8592 100.769V100.772Z" fill="white"/>
<path d="M60.3136 77.9219C73.1883 77.9219 84.0346 86.614 87.3394 98.46C87.8765 98.1022 88.4041 97.7285 88.9223 97.3486C84.379 85.9681 73.2894 77.9219 60.3136 77.9188V77.9219Z" fill="#21D62D"/>
<path d="M33.7569 100.772C33.7569 100.772 33.7402 100.759 33.7301 100.756C33.7402 100.762 33.7469 100.769 33.7569 100.772Z" fill="white"/>
<path d="M60.3136 77.9219C60.3136 77.9219 60.3104 77.9219 60.3073 77.9219C47.4294 77.9219 36.5831 86.614 33.2752 98.46C33.6069 98.6816 33.945 98.8938 34.283 99.1059C38.0427 88.3303 48.2698 80.5944 60.3073 80.5944C72.3447 80.5944 82.5718 88.3271 86.3315 99.1059C86.6696 98.8938 87.0077 98.6816 87.3394 98.46C84.0346 86.614 73.1883 77.925 60.3136 77.9219Z" fill="#21D62D"/>
<path d="M60.3073 7.11517C32.419 7.11517 9.81004 29.7748 9.81004 57.7258C9.81004 74.3089 17.7687 89.0301 30.0652 98.2605C30.9719 98.9413 31.904 99.5904 32.855 100.208C33.1425 100.395 33.4395 100.575 33.7301 100.756C32.8392 100.16 31.9672 99.5334 31.1204 98.8811C31.2942 98.365 31.4901 97.8552 31.6891 97.3517C31.3195 97.0825 30.953 96.8134 30.5928 96.5347C18.9914 87.5956 11.513 73.5457 11.513 57.7479C11.513 30.7406 33.3573 8.84726 60.3041 8.84726C87.2509 8.84726 109.095 30.7406 109.095 57.7479C109.095 73.5489 101.617 87.5956 90.0154 96.5347C89.6553 96.8134 89.2888 97.0825 88.9191 97.3517C89.1213 97.8552 89.314 98.365 89.4878 98.8811C88.6411 99.5334 87.7691 100.16 86.8813 100.756C87.1719 100.575 87.4689 100.395 87.7564 100.208C88.7074 99.5873 89.6395 98.9381 90.5462 98.2605C102.843 89.0301 110.801 74.3089 110.801 57.7258C110.801 29.7748 88.1924 7.11517 60.3041 7.11517H60.3073Z" fill="#A5CBC3"/>
<path d="M60.3073 106.649C50.7373 106.649 41.8151 103.881 34.283 99.1091C34.0934 99.6569 33.9134 100.208 33.7554 100.772C41.4707 105.563 50.5636 108.336 60.3073 108.336C70.051 108.336 79.1438 105.563 86.8592 100.772C86.7012 100.208 86.5243 99.6569 86.3315 99.1091C78.7994 103.881 69.8772 106.649 60.3073 106.649Z" fill="#A5CBC3"/>
<path d="M88.9223 97.3517C88.401 97.7317 87.8733 98.1022 87.3394 98.4631C87.0077 98.6848 86.6696 98.8969 86.3315 99.1091C86.5211 99.6569 86.7012 100.208 86.8592 100.772C86.8686 100.765 86.875 100.762 86.8844 100.756C87.7754 100.16 88.6442 99.5334 89.491 98.8811C89.3172 98.365 89.1213 97.8552 88.9223 97.3517Z" fill="#A5CBC3"/>
<path d="M33.2783 98.46C32.7412 98.1021 32.2136 97.7285 31.6954 97.3485C31.4932 97.852 31.3005 98.3618 31.1267 98.8779C31.9735 99.5303 32.8455 100.157 33.7364 100.753C33.7459 100.759 33.7522 100.762 33.7617 100.768C33.9197 100.205 34.0966 99.6537 34.2893 99.1059C33.9513 98.8938 33.6132 98.6816 33.2815 98.46H33.2783Z" fill="#A5CBC3"/>
</svg>
