<?xml version="1.0" encoding="utf-8"?>
<!-- Generator: Adobe Illustrator 28.1.0, SVG Export Plug-In . SVG Version: 6.00 Build 0)  -->
<svg version="1.1" id="Calque_1" xmlns="http://www.w3.org/2000/svg" xmlns:xlink="http://www.w3.org/1999/xlink" x="0px" y="0px"
	 viewBox="0 0 1920 1080" style="enable-background:new 0 0 1920 1080;" xml:space="preserve">
<style type="text/css">
	.st0{clip-path:url(#SVGID_00000172408531915778548540000009133211197152168857_);}
	.st1{fill:#A5CBC3;}
	.st2{clip-path:url(#SVGID_00000016784763060310957080000013648970048040859832_);}
	.st3{fill:#85CB33;}
	.st4{fill:none;stroke:#FFFFFF;}
	.st5{clip-path:url(#SVGID_00000002381791565902205370000001224786667200420253_);}
	.st6{clip-path:url(#SVGID_00000061467148817695544460000003297839217076405140_);}
	.st7{clip-path:url(#SVGID_00000073001869560010516240000004095836718611859890_);}
	.st8{clip-path:url(#SVGID_00000008863734847997160430000009661020651022494893_);}
	.st9{clip-path:url(#SVGID_00000132778775741435049240000005953693885043078036_);}
	.st10{clip-path:url(#SVGID_00000001623576073889472490000007352623504595168387_);}
</style>
<g id="Groupe_43" transform="translate(22.777 182.467)">
	<g>
		<defs>
			<rect id="SVGID_1_" x="530.2" y="224.73" width="270.55" height="189.12"/>
		</defs>
		<clipPath id="SVGID_00000147182659004118275000000016197554550258035367_">
			<use xlink:href="#SVGID_1_"  style="overflow:visible;"/>
		</clipPath>
		<g id="Groupe_42" style="clip-path:url(#SVGID_00000147182659004118275000000016197554550258035367_);">
			<path id="Tracé_31" class="st1" d="M697.03,362.34H535.76c-3.03,0.04-5.52-2.37-5.56-5.4V230.13c0.05-3.03,2.54-5.44,5.56-5.4
				h259.42c3.03-0.04,5.52,2.37,5.56,5.4v126.82c-0.05,3.03-2.54,5.44-5.56,5.4H764.2c-2.99-0.07-5.47,2.29-5.54,5.28
				c-0.02,0.88,0.17,1.75,0.56,2.53l18.38,35.85c2.6,5.08-3.58,10.12-8.28,6.76l-68.99-49.37
				C699.36,362.71,698.21,362.34,697.03,362.34"/>
		</g>
	</g>
</g>
<g id="Groupe_45" transform="translate(572.202 222.523)">
	<g>
		<defs>
			<rect id="SVGID_00000051368173231772571550000007831363480963109273_" x="530.2" y="224.73" width="213.73" height="109.01"/>
		</defs>
		<clipPath id="SVGID_00000035524898156230157190000004279424485672712351_">
			<use xlink:href="#SVGID_00000051368173231772571550000007831363480963109273_"  style="overflow:visible;"/>
		</clipPath>
		<g id="Groupe_44" style="clip-path:url(#SVGID_00000035524898156230157190000004279424485672712351_);">
			<path id="Tracé_32" class="st3" d="M612.14,304.05h127.39c2.43,0,4.4-1.39,4.4-3.11v-73.1c0-1.72-1.97-3.11-4.4-3.11H534.6
				c-2.43,0-4.4,1.39-4.4,3.11v73.1c0,1.72,1.97,3.11,4.4,3.11h24.48c3.26,0,5.39,2.43,3.93,4.5l-14.52,20.66
				c-2.06,2.93,2.83,5.83,6.54,3.89l54.5-28.45C610.34,304.25,611.23,304.04,612.14,304.05"/>
		</g>
	</g>
</g>
<path id="Rectangle_35" class="st3" d="M575.63,629.88h213c10.77,0,19.5,8.73,19.5,19.5l0,0c0,10.77-8.73,19.5-19.5,19.5h-213
	c-10.77,0-19.5-8.73-19.5-19.5l0,0C556.13,638.61,564.86,629.88,575.63,629.88z"/>
<line id="Ligne_38" class="st4" x1="791.63" y1="637.31" x2="590.87" y2="637.31"/>
<line id="Ligne_41" class="st4" x1="791.63" y1="647.31" x2="649.63" y2="647.31"/>
<line id="Ligne_44" class="st4" x1="796.63" y1="657.31" x2="605.87" y2="657.31"/>
<g id="Groupe_46" transform="translate(0 4.739)">
	<g>
		<defs>
			<rect id="SVGID_00000107546864239778099240000014986289418240081805_" x="530.2" y="224.73" width="189.86" height="173.79"/>
		</defs>
		<clipPath id="SVGID_00000083051464195067686860000008462452202297035929_">
			<use xlink:href="#SVGID_00000107546864239778099240000014986289418240081805_"  style="overflow:visible;"/>
		</clipPath>
		<g id="Groupe_21" style="clip-path:url(#SVGID_00000083051464195067686860000008462452202297035929_);">
			<path id="Tracé_21" class="st3" d="M624.91,241.23c-21.84-21.6-57.05-21.4-78.64,0.44c-21.6,21.84-21.4,57.05,0.43,78.64l0,0
				l79.08,78.21l78.21-79.08c21.6-21.84,21.4-57.05-0.44-78.64S646.51,219.4,624.91,241.23"/>
		</g>
	</g>
</g>
<g id="Groupe_48" transform="translate(686.43 449.213)">
	<g>
		<defs>
			<rect id="SVGID_00000080177546193205274130000008017320186601525683_" x="530.2" y="224.73" width="103.33" height="94.58"/>
		</defs>
		<clipPath id="SVGID_00000121271500448084133600000001213601091661112224_">
			<use xlink:href="#SVGID_00000080177546193205274130000008017320186601525683_"  style="overflow:visible;"/>
		</clipPath>
		<g id="Groupe_21-2" style="clip-path:url(#SVGID_00000121271500448084133600000001213601091661112224_);">
			<path id="Tracé_21-2" class="st3" d="M581.75,233.71c-11.88-11.75-31.05-11.65-42.8,0.24c-11.75,11.88-11.65,31.05,0.24,42.8
				l43.04,42.56l42.57-43.04c11.75-11.88,11.65-31.05-0.24-42.8C612.66,221.72,593.5,221.83,581.75,233.71"/>
		</g>
	</g>
</g>
<g id="Groupe_47" transform="translate(729.182 45.954)">
	<g>
		<defs>
			<rect id="SVGID_00000089542003359478726120000013850516469139230612_" x="530.2" y="224.73" width="131.77" height="120.61"/>
		</defs>
		<clipPath id="SVGID_00000028318488361238105770000018153466593221068434_">
			<use xlink:href="#SVGID_00000089542003359478726120000013850516469139230612_"  style="overflow:visible;"/>
		</clipPath>
		<g id="Groupe_21-3" style="clip-path:url(#SVGID_00000028318488361238105770000018153466593221068434_);">
			<path id="Tracé_21-3" class="st1" d="M595.93,236.18c-15.16-14.99-39.59-14.85-54.58,0.3s-14.85,39.59,0.3,54.58l54.88,54.28
				l54.28-54.88c14.91-15.23,14.65-39.67-0.59-54.58C635.11,221.08,610.89,221.22,595.93,236.18"/>
		</g>
	</g>
</g>
<g id="Groupe_49" transform="translate(226.154 442.582)">
	<g>
		<defs>
			<rect id="SVGID_00000018949275464662549390000008720015055880793528_" x="530.2" y="224.73" width="207.13" height="189.6"/>
		</defs>
		<clipPath id="SVGID_00000101782426440145936940000006636651652100080566_">
			<use xlink:href="#SVGID_00000018949275464662549390000008720015055880793528_"  style="overflow:visible;"/>
		</clipPath>
		<g id="Groupe_21-4" style="clip-path:url(#SVGID_00000101782426440145936940000006636651652100080566_);">
			<path id="Tracé_21-4" class="st1" d="M633.53,242.73c-23.82-23.56-62.23-23.35-85.79,0.48s-23.35,62.23,0.47,85.79l86.27,85.32
				l85.32-86.27c23.56-23.82,23.35-62.24-0.48-85.8C695.5,218.7,657.09,218.91,633.53,242.73"/>
		</g>
	</g>
</g>
<path id="Rectangle_38" class="st1" d="M1140.63,598.52h152c12.98,0,23.5,10.52,23.5,23.5l0,0c0,12.98-10.52,23.5-23.5,23.5h-152
	c-12.98,0-23.5-10.52-23.5-23.5l0,0C1117.13,609.05,1127.65,598.52,1140.63,598.52z"/>
<path id="Rectangle_39" class="st1" d="M1078.63,675.52h65c12.98,0,23.5,10.52,23.5,23.5l0,0c0,12.98-10.52,23.5-23.5,23.5h-65
	c-12.98,0-23.5-10.52-23.5-23.5l0,0C1055.13,686.05,1065.65,675.52,1078.63,675.52z"/>
<path id="Rectangle_40" class="st1" d="M1011.13,733.52h182c5.52,0,10,4.48,10,10l0,0c0,5.52-4.48,10-10,10h-182
	c-5.52,0-10-4.48-10-10l0,0C1001.13,738,1005.61,733.52,1011.13,733.52z"/>
<line id="Ligne_48" class="st4" x1="1303.63" y1="614.52" x2="1130.63" y2="614.52"/>
<line id="Ligne_50" class="st4" x1="1154.92" y1="691.52" x2="1068.63" y2="691.52"/>
<line id="Ligne_53" class="st4" x1="1190.92" y1="740.11" x2="1014.63" y2="740.11"/>
<line id="Ligne_47" class="st4" x1="1303.63" y1="624.52" x2="1161.63" y2="624.52"/>
<line id="Ligne_51" class="st4" x1="1147.98" y1="701.52" x2="1068.63" y2="701.52"/>
<line id="Ligne_54" class="st4" x1="1145.98" y1="744.43" x2="1066.63" y2="744.43"/>
<line id="Ligne_49" class="st4" x1="1303.63" y1="639.62" x2="1161.63" y2="639.62"/>
<line id="Ligne_52" class="st4" x1="1146.8" y1="711.52" x2="1075.45" y2="711.52"/>
<line id="Ligne_55" class="st4" x1="1182.8" y1="748.76" x2="1021.45" y2="748.76"/>
<g id="Groupe_41" transform="translate(307.475)">
	<g>
		<defs>
			<rect id="SVGID_00000058567257995082523290000013252108413369714314_" x="530.2" y="224.73" width="316.75" height="212.52"/>
		</defs>
		<clipPath id="SVGID_00000053525685753163972410000017884103941395494794_">
			<use xlink:href="#SVGID_00000058567257995082523290000013252108413369714314_"  style="overflow:visible;"/>
		</clipPath>
		<g id="Groupe_17" style="clip-path:url(#SVGID_00000053525685753163972410000017884103941395494794_);">
			<path id="Tracé_13" class="st3" d="M630.92,362.34h156.6c2.98,0,5.4-2.42,5.4-5.4V230.13c0-2.98-2.42-5.4-5.4-5.4H535.6
				c-2.98,0-5.4,2.42-5.4,5.4v126.82c0,2.98,2.42,5.4,5.4,5.4h30.1c2.98,0,5.4,2.41,5.4,5.4c0,0.84-0.19,1.66-0.57,2.41L552.69,406
				c-1.33,2.67-0.25,5.91,2.41,7.25c1.82,0.91,3.99,0.72,5.63-0.49l66.99-49.37C628.65,362.71,629.77,362.34,630.92,362.34"/>
			<path id="Tracé_14" class="st1" d="M842.11,248.13h-39.93v120.65c0,3.19-2.59,5.78-5.78,5.78H628.76
				c-1.23,0-2.44,0.39-3.43,1.13l-12.02,8.85c0.83,0.77,1.91,1.19,3.04,1.2h140.33c1.05,0.01,2.07,0.38,2.87,1.05l60.04,49.37
				c4.09,3.36,9.47-1.68,7.21-6.76l-16-35.85c-1.6-3.59,0.74-7.81,4.33-7.81h26.97c2.82-0.16,4.99-2.58,4.84-5.4V253.53
				C847.09,250.7,844.93,248.29,842.11,248.13"/>
		</g>
	</g>
</g>
<path id="Rectangle_37" class="st3" d="M564.98,758.41h188c6.63,0,12,5.37,12,12l0,0c0,6.63-5.37,12-12,12h-188
	c-6.63,0-12-5.37-12-12l0,0C552.98,763.79,558.35,758.41,564.98,758.41z"/>
<line id="Ligne_39" class="st4" x1="758.48" y1="764.41" x2="557.72" y2="764.41"/>
<line id="Ligne_42" class="st4" x1="758.48" y1="769.41" x2="616.48" y2="769.41"/>
<line id="Ligne_45" class="st4" x1="758.48" y1="774.41" x2="567.72" y2="774.41"/>
<path id="Rectangle_36" class="st3" d="M654.15,717.41h136c8.01,0,14.5,6.49,14.5,14.5l0,0c0,8.01-6.49,14.5-14.5,14.5h-136
	c-8.01,0-14.5-6.49-14.5-14.5l0,0C639.65,723.91,646.14,717.41,654.15,717.41z"/>
<line id="Ligne_40" class="st4" x1="799.03" y1="720.96" x2="656.15" y2="720.96"/>
<line id="Ligne_43" class="st4" x1="799.03" y1="729.69" x2="657.03" y2="729.69"/>
<line id="Ligne_46" class="st4" x1="799.03" y1="738.43" x2="666.15" y2="738.43"/>
<g id="Groupe_61" transform="translate(299.43 198.234)">
	<g>
		<defs>
			<rect id="SVGID_00000104666003041854014810000008581291849773879196_" x="530.2" y="224.73" width="267.71" height="210.05"/>
		</defs>
		<clipPath id="SVGID_00000173144105076840019110000010094469275771844279_">
			<use xlink:href="#SVGID_00000104666003041854014810000008581291849773879196_"  style="overflow:visible;"/>
		</clipPath>
		<g id="Groupe_19" style="clip-path:url(#SVGID_00000173144105076840019110000010094469275771844279_);">
			<path id="Tracé_15" class="st3" d="M740.42,302.16c17.8,0,32.23-14.43,32.23-32.23c0-17.8-14.43-32.23-32.23-32.23
				s-32.23,14.43-32.23,32.23S722.62,302.16,740.42,302.16L740.42,302.16"/>
			<path id="Tracé_16" class="st3" d="M666.39,299.35c20.61,0,37.31-16.7,37.31-37.31s-16.7-37.31-37.31-37.31
				c-20.61,0-37.31,16.7-37.31,37.31S645.78,299.35,666.39,299.35L666.39,299.35"/>
			<path id="Tracé_17" class="st1" d="M666.39,308.74L666.39,308.74c-36.77,0-66.58,29.81-66.58,66.58c0,0,0,0,0,0v59.45h133.17
				v-59.45C732.98,338.55,703.16,308.74,666.39,308.74"/>
			<path id="Tracé_18" class="st1" d="M740.42,310.26L740.42,310.26c-9.21-0.01-18.28,2.2-26.45,6.45
				c18.24,14.16,28.9,35.96,28.88,59.05v43.3h55.06v-51.32C797.9,336,772.17,310.26,740.42,310.26L740.42,310.26"/>
			<path id="Tracé_19" class="st3" d="M587.68,303.87c-17.8,0-32.23-14.43-32.23-32.23s14.43-32.23,32.23-32.23
				s32.23,14.43,32.23,32.23c0,0,0,0,0,0C619.91,289.44,605.48,303.87,587.68,303.87"/>
			<path id="Tracé_20" class="st1" d="M587.68,311.96L587.68,311.96c9.21-0.01,18.28,2.2,26.45,6.45
				c-18.24,14.16-28.9,35.96-28.88,59.05v43.3H530.2v-51.32C530.2,337.7,555.94,311.96,587.68,311.96L587.68,311.96"/>
		</g>
	</g>
</g>
</svg>
