<?xml version="1.0" encoding="utf-8"?>
<!-- Generator: Adobe Illustrator 28.1.0, SVG Export Plug-In . SVG Version: 6.00 Build 0)  -->
<svg version="1.1" id="Calque_1" xmlns="http://www.w3.org/2000/svg" xmlns:xlink="http://www.w3.org/1999/xlink" x="0px" y="0px"
	 viewBox="0 0 1920 1080" style="enable-background:new 0 0 1920 1080;" xml:space="preserve">
<style type="text/css">
	.st0{fill:#EFFFC8;}
	.st1{fill:#100B00;}
	.st2{fill:#A5CBC3;}
	.st3{fill:#85CB33;}
	.st4{fill:none;stroke:#FFFFFF;stroke-width:1.1733;}
	.st5{clip-path:url(#SVGID_00000085972543654334722670000004141143052604663475_);}
	.st6{fill:none;stroke:#85CB33;stroke-width:1.1733;stroke-miterlimit:10;}
	.st7{fill:none;stroke:#A5CBC3;stroke-width:1.1733;stroke-miterlimit:10;}
	.st8{clip-path:url(#SVGID_00000080927589482662191980000007091844062094843545_);}
	.st9{clip-path:url(#SVGID_00000068650482507920340920000014371178838845414048_);}
	.st10{clip-path:url(#SVGID_00000181052000532594067380000014450477028030704517_);}
	.st11{clip-path:url(#SVGID_00000020380648132211189990000000431092934060524478_);}
	.st12{clip-path:url(#SVGID_00000031190187266607369580000005248652222908933251_);}
	.st13{clip-path:url(#SVGID_00000137133037064072227420000010485630601139806348_);}
	.st14{clip-path:url(#SVGID_00000095296952435125714450000007920447803201952701_);}
	.st15{clip-path:url(#SVGID_00000116956642091432887190000013357483297925107090_);}
	.st16{clip-path:url(#SVGID_00000131340919961211638510000015114813922647474365_);}
	.st17{clip-path:url(#SVGID_00000140736318232593634330000015262402251063402137_);}
</style>
<path id="Rectangle_41" class="st0" d="M690.42,328.66h559.64c36.93,0,66.88,29.94,66.88,66.88v315.61
	c0,36.93-29.94,66.88-66.88,66.88H690.42c-36.93,0-66.88-29.94-66.88-66.88V395.54C623.54,358.6,653.48,328.66,690.42,328.66z"/>
<path id="Rectangle_43" class="st1" d="M858.19,356.82h339.07c18.79,0,34.02,15.23,34.02,34.02v327.34
	c0,18.79-15.23,34.02-34.02,34.02H858.19c-18.79,0-34.02-15.23-34.02-34.02V390.84C824.17,372.05,839.4,356.82,858.19,356.82z"/>
<path id="Rectangle_44" class="st2" d="M996.64,444.81H1209c6.48,0,11.73,5.25,11.73,11.73l0,0c0,6.48-5.25,11.73-11.73,11.73
	H996.64c-6.48,0-11.73-5.25-11.73-11.73l0,0C984.9,450.07,990.16,444.81,996.64,444.81z"/>
<path id="Rectangle_46" class="st2" d="M1010.13,476.49h185.37c13.93,0,25.22,11.29,25.22,25.23l0,0
	c0,13.93-11.29,25.23-25.22,25.23h-185.37c-13.93,0-25.23-11.29-25.23-25.23l0,0C984.9,487.78,996.2,476.49,1010.13,476.49z"/>
<path id="Rectangle_50" class="st2" d="M1119.24,625.49h76.26c13.93,0,25.22,11.29,25.22,25.23l0,0c0,13.93-11.29,25.23-25.22,25.23
	h-76.26c-13.93,0-25.22-11.29-25.22-25.23l0,0C1094.02,636.79,1105.31,625.49,1119.24,625.49z"/>
<path id="Rectangle_51" class="st2" d="M1100.47,684.16h113.81c3.56,0,6.45,2.89,6.45,6.45l0,0c0,3.56-2.89,6.45-6.45,6.45h-113.81
	c-3.56,0-6.45-2.89-6.45-6.45l0,0C1094.02,687.05,1096.91,684.16,1100.47,684.16z"/>
<path id="Rectangle_45" class="st3" d="M864.06,397.88h212.36c6.48,0,11.73,5.25,11.73,11.73l0,0c0,6.48-5.25,11.73-11.73,11.73
	H864.06c-6.48,0-11.73-5.25-11.73-11.73l0,0C852.33,403.13,857.58,397.88,864.06,397.88z"/>
<path id="Rectangle_47" class="st3" d="M864.06,535.15h109.11c6.48,0,11.73,5.25,11.73,11.73l0,0c0,6.48-5.25,11.73-11.73,11.73
	H864.06c-6.48,0-11.73-5.25-11.73-11.73l0,0C852.33,540.41,857.58,535.15,864.06,535.15z"/>
<path id="Rectangle_48" class="st3" d="M864.06,565.66h152.52c6.48,0,11.73,5.25,11.73,11.73l0,0c0,6.48-5.25,11.73-11.73,11.73
	H864.06c-6.48,0-11.73-5.25-11.73-11.73l0,0C852.33,570.91,857.58,565.66,864.06,565.66z"/>
<path id="Rectangle_49" class="st3" d="M864.06,596.16h64.53c6.48,0,11.73,5.25,11.73,11.73l0,0c0,6.48-5.25,11.73-11.73,11.73
	h-64.53c-6.48,0-11.73-5.25-11.73-11.73l0,0C852.33,601.42,857.58,596.16,864.06,596.16z"/>
<path id="Rectangle_52" class="st3" d="M857.02,702.93h78.61c2.59,0,4.69,2.1,4.69,4.69l0,0c0,2.59-2.1,4.69-4.69,4.69h-78.61
	c-2.59,0-4.69-2.1-4.69-4.69l0,0C852.33,705.03,854.43,702.93,857.02,702.93z"/>
<path id="Rectangle_53" class="st1" d="M685.72,356.82h64.53c16.2,0,29.33,13.13,29.33,29.33v336.73c0,16.2-13.13,29.33-29.33,29.33
	h-64.53c-16.2,0-29.33-13.13-29.33-29.33V386.15C656.39,369.95,669.52,356.82,685.72,356.82z"/>
<path id="Rectangle_54" class="st1" d="M1271.18,413.13L1271.18,413.13c10.37,0,18.77,8.4,18.77,18.77v258.12
	c0,10.37-8.4,18.77-18.77,18.77l0,0c-10.37,0-18.77-8.4-18.77-18.77V431.91C1252.41,421.54,1260.81,413.13,1271.18,413.13z"/>
<line id="Ligne_56" class="st4" x1="686.31" y1="397.3" x2="769.61" y2="397.3"/>
<line id="Ligne_59" class="st4" x1="686.31" y1="447.75" x2="769.61" y2="447.75"/>
<line id="Ligne_62" class="st4" x1="686.31" y1="498.2" x2="769.61" y2="498.2"/>
<line id="Ligne_65" class="st4" x1="686.31" y1="548.65" x2="769.61" y2="548.65"/>
<line id="Ligne_68" class="st4" x1="686.31" y1="599.1" x2="769.61" y2="599.1"/>
<line id="Ligne_71" class="st4" x1="686.31" y1="649.55" x2="769.61" y2="649.55"/>
<line id="Ligne_57" class="st4" x1="686.31" y1="409.03" x2="743.8" y2="409.03"/>
<line id="Ligne_60" class="st4" x1="686.31" y1="459.48" x2="743.8" y2="459.48"/>
<line id="Ligne_63" class="st4" x1="686.31" y1="509.93" x2="743.8" y2="509.93"/>
<line id="Ligne_66" class="st4" x1="686.31" y1="560.38" x2="743.8" y2="560.38"/>
<line id="Ligne_69" class="st4" x1="686.31" y1="610.83" x2="743.8" y2="610.83"/>
<line id="Ligne_72" class="st4" x1="686.31" y1="661.28" x2="743.8" y2="661.28"/>
<line id="Ligne_58" class="st4" x1="686.31" y1="420.76" x2="757.88" y2="420.76"/>
<line id="Ligne_61" class="st4" x1="686.31" y1="471.21" x2="757.88" y2="471.21"/>
<line id="Ligne_64" class="st4" x1="686.31" y1="521.66" x2="757.88" y2="521.66"/>
<line id="Ligne_67" class="st4" x1="686.31" y1="572.11" x2="757.88" y2="572.11"/>
<line id="Ligne_70" class="st4" x1="686.31" y1="622.56" x2="757.88" y2="622.56"/>
<line id="Ligne_73" class="st4" x1="686.31" y1="673.01" x2="757.88" y2="673.01"/>
<g id="Groupe_50" transform="translate(63.468 306.199)">
	<g>
		<defs>
			<rect id="SVGID_1_" x="599.05" y="86.91" width="18.26" height="18.26"/>
		</defs>
		<clipPath id="SVGID_00000029023999996431539780000010012618716616467109_">
			<use xlink:href="#SVGID_1_"  style="overflow:visible;"/>
		</clipPath>
		<g id="Groupe_3" style="clip-path:url(#SVGID_00000029023999996431539780000010012618716616467109_);">
			<path id="Tracé_10" class="st6" d="M611.49,94.63c0,1.83-1.49,3.32-3.32,3.32c-1.83,0-3.32-1.49-3.32-3.32s1.49-3.32,3.32-3.32
				S611.49,92.8,611.49,94.63C611.49,94.63,611.49,94.63,611.49,94.63z"/>
			<path id="Tracé_11" class="st6" d="M608.18,105c1.82,0,3.61-0.55,5.1-1.6c-0.39-2.82-3-4.79-5.81-4.39
				c-2.28,0.32-4.07,2.11-4.39,4.39C604.57,104.45,606.35,105,608.18,105z"/>
			<circle id="Ellipse_1" class="st7" cx="608.17" cy="96.04" r="8.96"/>
		</g>
	</g>
</g>
<g id="Groupe_51" transform="translate(63.468 348.199)">
	<g>
		<defs>
			<rect id="SVGID_00000173851649286936810210000016914169912897392036_" x="599.05" y="94.19" width="18.26" height="18.26"/>
		</defs>
		<clipPath id="SVGID_00000043455389167914005000000017020973546520826023_">
			<use xlink:href="#SVGID_00000173851649286936810210000016914169912897392036_"  style="overflow:visible;"/>
		</clipPath>
		<g id="Groupe_3-2" style="clip-path:url(#SVGID_00000043455389167914005000000017020973546520826023_);">
			<path id="Tracé_10-2" class="st6" d="M611.49,101.91c0,1.83-1.49,3.32-3.32,3.32s-3.32-1.49-3.32-3.32
				c0-1.83,1.49-3.32,3.32-3.32S611.49,100.07,611.49,101.91C611.49,101.91,611.49,101.91,611.49,101.91z"/>
			<path id="Tracé_11-2" class="st6" d="M608.18,112.28c1.82,0,3.61-0.55,5.1-1.6c-0.39-2.82-3-4.79-5.81-4.39
				c-2.28,0.32-4.07,2.11-4.39,4.39C604.57,111.72,606.35,112.28,608.18,112.28z"/>
			<circle id="Ellipse_1-2" class="st7" cx="608.17" cy="103.32" r="8.96"/>
		</g>
	</g>
</g>
<g id="Groupe_52" transform="translate(63.468 390.199)">
	<g>
		<defs>
			<rect id="SVGID_00000063598135065724134440000004327812042439962503_" x="599.05" y="101.47" width="18.26" height="18.26"/>
		</defs>
		<clipPath id="SVGID_00000112604095924171611340000002059845228045567626_">
			<use xlink:href="#SVGID_00000063598135065724134440000004327812042439962503_"  style="overflow:visible;"/>
		</clipPath>
		<g id="Groupe_3-3" style="clip-path:url(#SVGID_00000112604095924171611340000002059845228045567626_);">
			<path id="Tracé_10-3" class="st6" d="M611.49,109.18c0,1.83-1.49,3.32-3.32,3.32c-1.83,0-3.32-1.49-3.32-3.32
				s1.49-3.32,3.32-3.32S611.49,107.35,611.49,109.18C611.49,109.18,611.49,109.18,611.49,109.18z"/>
			<path id="Tracé_11-3" class="st6" d="M608.18,119.56c1.82,0,3.61-0.55,5.1-1.6c-0.39-2.82-3-4.79-5.81-4.39
				c-2.28,0.32-4.07,2.11-4.39,4.39C604.57,119,606.35,119.56,608.18,119.56z"/>
			<circle id="Ellipse_1-3" class="st7" cx="608.17" cy="110.6" r="8.96"/>
		</g>
	</g>
</g>
<g id="Groupe_53" transform="translate(63.468 432.199)">
	<g>
		<defs>
			<rect id="SVGID_00000157275421396427907180000000252280824077405347_" x="599.05" y="108.75" width="18.26" height="18.26"/>
		</defs>
		<clipPath id="SVGID_00000151519389750057038700000018291922102962255022_">
			<use xlink:href="#SVGID_00000157275421396427907180000000252280824077405347_"  style="overflow:visible;"/>
		</clipPath>
		<g id="Groupe_3-4" style="clip-path:url(#SVGID_00000151519389750057038700000018291922102962255022_);">
			<path id="Tracé_10-4" class="st6" d="M611.49,116.46c0,1.83-1.49,3.32-3.32,3.32c-1.83,0-3.32-1.49-3.32-3.32
				s1.49-3.32,3.32-3.32S611.49,114.63,611.49,116.46C611.49,116.46,611.49,116.46,611.49,116.46z"/>
			<path id="Tracé_11-4" class="st6" d="M608.18,126.83c1.82,0,3.61-0.55,5.1-1.6c-0.39-2.82-3-4.79-5.81-4.39
				c-2.28,0.32-4.07,2.11-4.39,4.39C604.57,126.28,606.35,126.84,608.18,126.83z"/>
			<circle id="Ellipse_1-4" class="st7" cx="608.17" cy="117.87" r="8.96"/>
		</g>
	</g>
</g>
<g id="Groupe_54" transform="translate(63.468 475.699)">
	<g>
		<defs>
			<rect id="SVGID_00000163778921402810330060000015782006283581154205_" x="599.05" y="116.28" width="18.26" height="18.26"/>
		</defs>
		<clipPath id="SVGID_00000105386060743725095830000014725335633654712206_">
			<use xlink:href="#SVGID_00000163778921402810330060000015782006283581154205_"  style="overflow:visible;"/>
		</clipPath>
		<g id="Groupe_3-5" style="clip-path:url(#SVGID_00000105386060743725095830000014725335633654712206_);">
			<path id="Tracé_10-5" class="st6" d="M611.49,124c0,1.83-1.49,3.32-3.32,3.32s-3.32-1.49-3.32-3.32c0-1.83,1.49-3.32,3.32-3.32
				S611.49,122.17,611.49,124C611.49,124,611.49,124,611.49,124z"/>
			<path id="Tracé_11-5" class="st6" d="M608.18,134.37c1.82,0,3.61-0.55,5.1-1.6c-0.39-2.82-3-4.79-5.81-4.39
				c-2.28,0.32-4.07,2.11-4.39,4.39C604.57,133.82,606.35,134.37,608.18,134.37z"/>
			<circle id="Ellipse_1-5" class="st7" cx="608.17" cy="125.41" r="8.96"/>
		</g>
	</g>
</g>
<g id="Groupe_55" transform="translate(63.468 519.199)">
	<g>
		<defs>
			<rect id="SVGID_00000085237317651444029570000018083579938147666595_" x="599.05" y="123.82" width="18.26" height="18.26"/>
		</defs>
		<clipPath id="SVGID_00000006701290939428790480000005737452512843771524_">
			<use xlink:href="#SVGID_00000085237317651444029570000018083579938147666595_"  style="overflow:visible;"/>
		</clipPath>
		<g id="Groupe_3-6" style="clip-path:url(#SVGID_00000006701290939428790480000005737452512843771524_);">
			<path id="Tracé_10-6" class="st6" d="M611.49,131.53c0,1.83-1.49,3.32-3.32,3.32s-3.32-1.49-3.32-3.32
				c0-1.83,1.49-3.32,3.32-3.32S611.49,129.7,611.49,131.53C611.49,131.53,611.49,131.53,611.49,131.53z"/>
			<path id="Tracé_11-6" class="st6" d="M608.18,141.91c1.82,0,3.61-0.55,5.1-1.6c-0.39-2.82-3-4.79-5.81-4.39
				c-2.28,0.32-4.07,2.11-4.39,4.39C604.57,141.35,606.35,141.91,608.18,141.91z"/>
			<circle id="Ellipse_1-6" class="st7" cx="608.17" cy="132.95" r="8.96"/>
		</g>
	</g>
</g>
<g id="Groupe_56" transform="translate(201.25)">
	<g>
		<defs>
			<rect id="SVGID_00000011735506914419867410000018406191770072121737_" x="622.92" y="33.86" width="250.76" height="127.9"/>
		</defs>
		<clipPath id="SVGID_00000038409822987683103940000018210904491460664232_">
			<use xlink:href="#SVGID_00000011735506914419867410000018406191770072121737_"  style="overflow:visible;"/>
		</clipPath>
		<g id="Groupe_44" style="clip-path:url(#SVGID_00000038409822987683103940000018210904491460664232_);">
			<path id="Tracé_32" class="st3" d="M719.05,126.93h149.47c2.85,0,5.16-1.64,5.16-3.65V37.52c0-2.02-2.31-3.65-5.16-3.65H628.08
				c-2.85,0-5.16,1.64-5.16,3.65v85.77c0,2.02,2.31,3.65,5.16,3.65h28.72c3.83,0,6.32,2.85,4.62,5.28l-17.04,24.24
				c-2.41,3.43,3.32,6.84,7.67,4.57l63.94-33.38C716.94,127.17,717.99,126.92,719.05,126.93"/>
		</g>
	</g>
</g>
<g id="Groupe_60" transform="translate(103.699 679.801)">
	<g>
		<defs>
			<rect id="SVGID_00000086651679123549945250000011907968001574259390_" x="606.02" y="151.64" width="250.76" height="127.9"/>
		</defs>
		<clipPath id="SVGID_00000003066441913901664840000009831185594752697480_">
			<use xlink:href="#SVGID_00000086651679123549945250000011907968001574259390_"  style="overflow:visible;"/>
		</clipPath>
		<g id="Groupe_44-2" style="clip-path:url(#SVGID_00000003066441913901664840000009831185594752697480_);">
			<path id="Tracé_32-2" class="st3" d="M702.15,244.71h149.47c2.85,0,5.16-1.64,5.16-3.65V155.3c0-2.02-2.31-3.65-5.16-3.65
				H611.18c-2.85,0-5.16,1.64-5.16,3.65v85.77c0,2.02,2.31,3.65,5.16,3.65h28.72c3.83,0,6.32,2.85,4.62,5.28l-17.04,24.24
				c-2.41,3.43,3.32,6.84,7.67,4.57l63.94-33.38C700.04,244.95,701.09,244.7,702.15,244.71"/>
		</g>
	</g>
</g>
<g id="Groupe_57" transform="translate(403.974 86.138)">
	<g>
		<defs>
			<rect id="SVGID_00000091005936779634242350000006136825518551117743_" x="658.04" y="48.79" width="317.43" height="221.89"/>
		</defs>
		<clipPath id="SVGID_00000124134872714658501570000005167824941037307280_">
			<use xlink:href="#SVGID_00000091005936779634242350000006136825518551117743_"  style="overflow:visible;"/>
		</clipPath>
		<g id="Groupe_42" style="clip-path:url(#SVGID_00000124134872714658501570000005167824941037307280_);">
			<path id="Tracé_31" class="st2" d="M853.77,210.25h-189.2c-3.55,0.05-6.47-2.79-6.53-6.34V55.12c0.05-3.55,2.98-6.39,6.53-6.34
				h304.37c3.55-0.05,6.47,2.78,6.53,6.34v148.79c-0.05,3.55-2.98,6.39-6.53,6.34h-36.36c-3.51-0.09-6.42,2.69-6.5,6.19
				c-0.03,1.03,0.2,2.05,0.66,2.97l21.57,42.06c3.05,5.96-4.2,11.87-9.72,7.93l-80.94-57.92
				C856.51,210.68,855.16,210.25,853.77,210.25"/>
		</g>
	</g>
</g>
<g id="Groupe_58" transform="translate(0 115.45)">
	<g>
		<defs>
			<rect id="SVGID_00000125588795691228127660000015965954442920646291_" x="588.05" y="53.87" width="196.52" height="147.61"/>
		</defs>
		<clipPath id="SVGID_00000030460254113099806120000002149805154109479853_">
			<use xlink:href="#SVGID_00000125588795691228127660000015965954442920646291_"  style="overflow:visible;"/>
		</clipPath>
		<g id="Groupe_42-2" style="clip-path:url(#SVGID_00000030460254113099806120000002149805154109479853_);">
			<path id="Tracé_31-2" class="st2" d="M663.39,161.28h117.14c2.28-0.05,4.09-1.94,4.04-4.22V58.08c0.05-2.28-1.76-4.17-4.04-4.22
				H592.09c-2.28,0.05-4.09,1.94-4.04,4.22v98.98c-0.05,2.28,1.76,4.17,4.04,4.22h22.51c2.32,0.08,4.14,2.03,4.06,4.35
				c-0.02,0.61-0.17,1.2-0.45,1.75l-13.35,27.98c-1.89,3.96,2.6,7.9,6.02,5.27l50.11-38.53
				C661.68,161.57,662.52,161.28,663.39,161.28"/>
		</g>
	</g>
</g>
<g id="Groupe_59" transform="translate(361.199 703.894)">
	<g>
		<defs>
			<rect id="SVGID_00000036939454040919320050000009007622603811531454_" x="650.63" y="155.82" width="208.9" height="147.61"/>
		</defs>
		<clipPath id="SVGID_00000060740428031809725550000004432206562373020849_">
			<use xlink:href="#SVGID_00000036939454040919320050000009007622603811531454_"  style="overflow:visible;"/>
		</clipPath>
		<g id="Groupe_42-3" style="clip-path:url(#SVGID_00000060740428031809725550000004432206562373020849_);">
			<path id="Tracé_31-3" class="st2" d="M779.44,263.23H654.93c-2.35,0.02-4.27-1.87-4.3-4.22v-98.98c0.02-2.35,1.94-4.24,4.3-4.22
				h200.31c2.35-0.02,4.27,1.87,4.3,4.22c0,0,0,0,0,0v98.98c-0.02,2.35-1.95,4.24-4.3,4.22c0,0,0,0,0,0h-23.92
				c-2.33-0.03-4.25,1.83-4.29,4.16c-0.01,0.67,0.14,1.34,0.44,1.94l14.2,27.98c1.02,2.12,0.14,4.67-1.99,5.7
				c-1.43,0.69-3.13,0.53-4.41-0.42L782,264.06c-0.74-0.53-1.63-0.82-2.55-0.82"/>
		</g>
	</g>
</g>
</svg>
