<?xml version="1.0" encoding="utf-8"?>
<!-- Generator: Adobe Illustrator 28.1.0, SVG Export Plug-In . SVG Version: 6.00 Build 0)  -->
<svg version="1.1" id="Calque_1" xmlns="http://www.w3.org/2000/svg" xmlns:xlink="http://www.w3.org/1999/xlink" x="0px" y="0px"
	 viewBox="0 0 1920 1080" style="enable-background:new 0 0 1920 1080;" xml:space="preserve">
<style type="text/css">
	.st0{fill:#100B00;}
	.st1{fill:#EFFFC8;}
	.st2{fill:none;stroke:#FFFFFF;stroke-width:1.2163;}
	.st3{clip-path:url(#SVGID_00000178915470712502496520000011925658087969486242_);}
	.st4{fill:none;stroke:#85CB33;stroke-width:1.2163;stroke-miterlimit:10;}
	.st5{fill:none;stroke:#A5CBC3;stroke-width:1.2163;stroke-miterlimit:10;}
	.st6{clip-path:url(#SVGID_00000101061113505318313510000014972157894858027148_);}
	.st7{clip-path:url(#SVGID_00000149369367320885443400000013730490886140283572_);}
	.st8{clip-path:url(#SVGID_00000007392771627618163450000000244073649514598312_);}
	.st9{clip-path:url(#SVGID_00000091709362796258036680000014274596118904541318_);}
	.st10{clip-path:url(#SVGID_00000094606029996204902150000009393576427099734920_);}
	.st11{clip-path:url(#SVGID_00000169547910788862552420000018029293261807904165_);}
	.st12{clip-path:url(#SVGID_00000067219659430834543170000006668466286261449396_);}
	.st13{opacity:0.97;}
	.st14{clip-path:url(#SVGID_00000130630724589754048100000005686479898333307549_);}
	.st15{fill:#A5CBC3;stroke:#707070;stroke-width:1.2163;}
	.st16{fill:#85CB33;}
	.st17{fill:#A5CBC3;}
	.st18{clip-path:url(#SVGID_00000142165964132733291910000014250690221000829572_);}
	.st19{clip-path:url(#SVGID_00000060020285313040414110000017862836623411860917_);}
	.st20{clip-path:url(#SVGID_00000025424144249015770710000004835734576226829730_);}
	.st21{fill:none;stroke:#85CB33;stroke-width:7.2408;stroke-miterlimit:10;}
	.st22{fill:none;stroke:#A5CBC3;stroke-width:7.2785;stroke-miterlimit:10;}
	.st23{clip-path:url(#SVGID_00000144319995868003152870000004392023101770296253_);}
	.st24{fill:none;stroke:#85CB33;stroke-width:6.1862;stroke-miterlimit:10;}
	.st25{fill:none;stroke:#85CB33;stroke-width:4.7376;stroke-miterlimit:10;}
	.st26{fill:none;stroke:#A5CBC3;stroke-width:4.7376;stroke-miterlimit:10;}
	.st27{clip-path:url(#SVGID_00000145051662165647376870000016456424868495559078_);}
	.st28{clip-path:url(#SVGID_00000042727601745524494770000001963478477189811645_);}
	.st29{clip-path:url(#SVGID_00000085970107840387099550000006005824006027275917_);}
	.st30{clip-path:url(#SVGID_00000013188932525849433260000001000379834429200314_);}
	.st31{clip-path:url(#SVGID_00000148627801639198464290000003783359714279201712_);}
	.st32{clip-path:url(#SVGID_00000154405893379347381590000002623699893112943023_);}
	.st33{fill:#FFFFFF;}
	.st34{clip-path:url(#SVGID_00000171710104975867038500000003595778091372517266_);}
	.st35{clip-path:url(#SVGID_00000151545319763985716650000006455115592036583342_);}
</style>
<path id="Rectangle_6" class="st0" d="M717.56,352.55h66.9c16.79,0,30.41,13.61,30.41,30.41v310.16c0,16.79-13.61,30.41-30.41,30.41
	h-66.9c-16.79,0-30.41-13.61-30.41-30.41V382.95C687.16,366.16,700.77,352.55,717.56,352.55z"/>
<path id="Rectangle_8" class="st0" d="M1346.4,309.98v14.6c0,9.4-7.62,17.03-17.03,17.03H720c-9.4,0-17.03-7.62-17.03-17.03v-14.6
	c0-9.4,7.62-17.03,17.03-17.03h609.38C1338.78,292.95,1346.4,300.57,1346.4,309.98z"/>
<path id="Rectangle_10" class="st1" d="M1256.4,317.88L1256.4,317.88c0,5.04-4.08,9.12-9.12,9.12h-158.12
	c-5.04,0-9.12-4.08-9.12-9.12l0,0c0-5.04,4.08-9.12,9.12-9.12h158.12C1252.31,308.76,1256.4,312.84,1256.4,317.88z"/>
<line id="Ligne_1" class="st2" x1="718.17" y1="382.35" x2="804.53" y2="382.35"/>
<line id="Ligne_6" class="st2" x1="718.17" y1="434.65" x2="804.53" y2="434.65"/>
<line id="Ligne_9" class="st2" x1="718.17" y1="486.95" x2="804.53" y2="486.95"/>
<line id="Ligne_12" class="st2" x1="718.17" y1="539.25" x2="804.53" y2="539.25"/>
<line id="Ligne_15" class="st2" x1="718.17" y1="591.55" x2="804.53" y2="591.55"/>
<line id="Ligne_18" class="st2" x1="718.17" y1="643.86" x2="804.53" y2="643.86"/>
<line id="Ligne_2" class="st2" x1="718.17" y1="394.51" x2="777.77" y2="394.51"/>
<line id="Ligne_5" class="st2" x1="718.17" y1="446.81" x2="777.77" y2="446.81"/>
<line id="Ligne_8" class="st2" x1="718.17" y1="499.11" x2="777.77" y2="499.11"/>
<line id="Ligne_11" class="st2" x1="718.17" y1="551.42" x2="777.77" y2="551.42"/>
<line id="Ligne_14" class="st2" x1="718.17" y1="603.72" x2="777.77" y2="603.72"/>
<line id="Ligne_17" class="st2" x1="718.17" y1="656.02" x2="777.77" y2="656.02"/>
<line id="Ligne_3" class="st2" x1="718.17" y1="406.67" x2="792.37" y2="406.67"/>
<line id="Ligne_4" class="st2" x1="718.17" y1="458.97" x2="792.37" y2="458.97"/>
<line id="Ligne_7" class="st2" x1="718.17" y1="511.28" x2="792.37" y2="511.28"/>
<line id="Ligne_10" class="st2" x1="718.17" y1="563.58" x2="792.37" y2="563.58"/>
<line id="Ligne_13" class="st2" x1="718.17" y1="615.88" x2="792.37" y2="615.88"/>
<line id="Ligne_16" class="st2" x1="718.17" y1="668.18" x2="792.37" y2="668.18"/>
<g id="Groupe_4" transform="translate(247.218 234.467)">
	<g>
		<defs>
			<rect id="SVGID_1_" x="446.29" y="141.11" width="18.93" height="18.93"/>
		</defs>
		<clipPath id="SVGID_00000142144592062874706240000010209752203414786962_">
			<use xlink:href="#SVGID_1_"  style="overflow:visible;"/>
		</clipPath>
		<g id="Groupe_3" style="clip-path:url(#SVGID_00000142144592062874706240000010209752203414786962_);">
			<path id="Tracé_10" class="st4" d="M459.19,149.11c0,1.9-1.54,3.44-3.44,3.44c-1.9,0-3.44-1.54-3.44-3.44s1.54-3.44,3.44-3.44
				S459.19,147.21,459.19,149.11C459.19,149.11,459.19,149.11,459.19,149.11z"/>
			<path id="Tracé_11" class="st4" d="M455.75,159.86c1.89,0,3.74-0.57,5.29-1.65c-0.41-2.92-3.11-4.96-6.03-4.55
				c-2.37,0.33-4.22,2.19-4.55,4.55C452.01,159.29,453.86,159.87,455.75,159.86z"/>
			<circle id="Ellipse_1" class="st5" cx="455.75" cy="150.58" r="9.29"/>
		</g>
	</g>
</g>
<g id="Groupe_5" transform="translate(247.218 276.467)">
	<g>
		<defs>
			<rect id="SVGID_00000061455732800292890750000002542857278828772763_" x="446.29" y="150.2" width="18.93" height="18.93"/>
		</defs>
		<clipPath id="SVGID_00000137125456377073734400000012756069001832220581_">
			<use xlink:href="#SVGID_00000061455732800292890750000002542857278828772763_"  style="overflow:visible;"/>
		</clipPath>
		<g id="Groupe_3-2" style="clip-path:url(#SVGID_00000137125456377073734400000012756069001832220581_);">
			<path id="Tracé_10-2" class="st4" d="M459.19,158.2c0,1.9-1.54,3.44-3.44,3.44c-1.9,0-3.44-1.54-3.44-3.44s1.54-3.44,3.44-3.44
				S459.19,156.3,459.19,158.2C459.19,158.2,459.19,158.2,459.19,158.2z"/>
			<path id="Tracé_11-2" class="st4" d="M455.75,168.95c1.89,0,3.74-0.57,5.29-1.65c-0.41-2.92-3.11-4.96-6.03-4.55
				c-2.37,0.33-4.22,2.19-4.55,4.55C452.01,168.37,453.86,168.95,455.75,168.95z"/>
			<circle id="Ellipse_1-2" class="st5" cx="455.75" cy="159.66" r="9.29"/>
		</g>
	</g>
</g>
<g id="Groupe_6" transform="translate(247.218 318.467)">
	<g>
		<defs>
			<rect id="SVGID_00000036225358657348247480000003227206608247141258_" x="446.29" y="159.28" width="18.93" height="18.93"/>
		</defs>
		<clipPath id="SVGID_00000001659206059976684020000006688334015221911171_">
			<use xlink:href="#SVGID_00000036225358657348247480000003227206608247141258_"  style="overflow:visible;"/>
		</clipPath>
		<g id="Groupe_3-3" style="clip-path:url(#SVGID_00000001659206059976684020000006688334015221911171_);">
			<path id="Tracé_10-3" class="st4" d="M459.19,167.28c0,1.9-1.54,3.44-3.44,3.44c-1.9,0-3.44-1.54-3.44-3.44
				c0-1.9,1.54-3.44,3.44-3.44S459.19,165.38,459.19,167.28C459.19,167.28,459.19,167.28,459.19,167.28z"/>
			<path id="Tracé_11-3" class="st4" d="M455.75,178.03c1.89,0,3.74-0.57,5.29-1.65c-0.41-2.92-3.11-4.96-6.03-4.55
				c-2.37,0.33-4.22,2.19-4.55,4.55C452.01,177.46,453.86,178.04,455.75,178.03z"/>
			<circle id="Ellipse_1-3" class="st5" cx="455.75" cy="168.75" r="9.29"/>
		</g>
	</g>
</g>
<g id="Groupe_7" transform="translate(247.218 360.467)">
	<g>
		<defs>
			<rect id="SVGID_00000175281078416991519400000008292139834626988931_" x="446.29" y="168.37" width="18.93" height="18.93"/>
		</defs>
		<clipPath id="SVGID_00000171680520096179352140000012699461273395589047_">
			<use xlink:href="#SVGID_00000175281078416991519400000008292139834626988931_"  style="overflow:visible;"/>
		</clipPath>
		<g id="Groupe_3-4" style="clip-path:url(#SVGID_00000171680520096179352140000012699461273395589047_);">
			<path id="Tracé_10-4" class="st4" d="M459.19,176.37c0,1.9-1.54,3.44-3.44,3.44c-1.9,0-3.44-1.54-3.44-3.44s1.54-3.44,3.44-3.44
				S459.19,174.47,459.19,176.37C459.19,176.37,459.19,176.37,459.19,176.37z"/>
			<path id="Tracé_11-4" class="st4" d="M455.75,187.12c1.89,0,3.74-0.57,5.29-1.65c-0.41-2.92-3.11-4.96-6.03-4.55
				c-2.37,0.33-4.22,2.19-4.55,4.55C452.01,186.55,453.86,187.12,455.75,187.12z"/>
			<circle id="Ellipse_1-4" class="st5" cx="455.75" cy="177.83" r="9.29"/>
		</g>
	</g>
</g>
<g id="Groupe_8" transform="translate(247.218 403.967)">
	<g>
		<defs>
			<rect id="SVGID_00000070831538222312301530000014770413452083206832_" x="446.29" y="177.78" width="18.93" height="18.93"/>
		</defs>
		<clipPath id="SVGID_00000006674062109150653510000012348926429363846542_">
			<use xlink:href="#SVGID_00000070831538222312301530000014770413452083206832_"  style="overflow:visible;"/>
		</clipPath>
		<g id="Groupe_3-5" style="clip-path:url(#SVGID_00000006674062109150653510000012348926429363846542_);">
			<path id="Tracé_10-5" class="st4" d="M459.19,185.78c0,1.9-1.54,3.44-3.44,3.44c-1.9,0-3.44-1.54-3.44-3.44s1.54-3.44,3.44-3.44
				S459.19,183.88,459.19,185.78C459.19,185.78,459.19,185.78,459.19,185.78z"/>
			<path id="Tracé_11-5" class="st4" d="M455.75,196.53c1.89,0,3.74-0.57,5.29-1.65c-0.41-2.92-3.11-4.96-6.03-4.55
				c-2.37,0.33-4.22,2.19-4.55,4.55C452.01,195.96,453.86,196.53,455.75,196.53z"/>
			<circle id="Ellipse_1-5" class="st5" cx="455.75" cy="187.24" r="9.29"/>
		</g>
	</g>
</g>
<g id="Groupe_9" transform="translate(247.218 447.467)">
	<g>
		<defs>
			<rect id="SVGID_00000092447968593106874910000011297309928168530055_" x="446.29" y="187.19" width="18.93" height="18.93"/>
		</defs>
		<clipPath id="SVGID_00000057859877100797271060000005914313827323705789_">
			<use xlink:href="#SVGID_00000092447968593106874910000011297309928168530055_"  style="overflow:visible;"/>
		</clipPath>
		<g id="Groupe_3-6" style="clip-path:url(#SVGID_00000057859877100797271060000005914313827323705789_);">
			<path id="Tracé_10-6" class="st4" d="M459.19,195.19c0,1.9-1.54,3.44-3.44,3.44c-1.9,0-3.44-1.54-3.44-3.44s1.54-3.44,3.44-3.44
				S459.19,193.29,459.19,195.19C459.19,195.19,459.19,195.19,459.19,195.19z"/>
			<path id="Tracé_11-6" class="st4" d="M455.75,205.94c1.89,0,3.74-0.57,5.29-1.65c-0.41-2.92-3.11-4.96-6.03-4.55
				c-2.37,0.33-4.22,2.19-4.55,4.55C452.01,205.37,453.86,205.94,455.75,205.94z"/>
			<circle id="Ellipse_1-6" class="st5" cx="455.75" cy="196.65" r="9.29"/>
		</g>
	</g>
</g>
<g id="Groupe_16" transform="translate(549 180.031)">
	<g>
		<defs>
			<rect id="SVGID_00000110454390530043343640000000644081587151952823_" x="511.57" y="129.34" width="13.49" height="13.82"/>
		</defs>
		<clipPath id="SVGID_00000159431196544587615190000000007959491034105265_">
			<use xlink:href="#SVGID_00000110454390530043343640000000644081587151952823_"  style="overflow:visible;"/>
		</clipPath>
		<g id="Groupe_15" style="clip-path:url(#SVGID_00000159431196544587615190000000007959491034105265_);">
			<g id="Groupe_14">
				<g>
					<defs>
						<rect id="SVGID_00000109002484673396258660000015213173133998296995_" x="511.57" y="129.34" width="13.49" height="13.82"/>
					</defs>
					<clipPath id="SVGID_00000099625591499472639860000012402841191739350702_">
						<use xlink:href="#SVGID_00000109002484673396258660000015213173133998296995_"  style="overflow:visible;"/>
					</clipPath>
					<g id="Groupe_13" style="clip-path:url(#SVGID_00000099625591499472639860000012402841191739350702_);">
						<g id="Groupe_12" class="st13">
							<g id="Groupe_11">
								<g>
									<defs>
										
											<rect id="SVGID_00000092425793109951263630000012484564307482123710_" x="511.57" y="129.34" width="13.49" height="13.82"/>
									</defs>
									<clipPath id="SVGID_00000055697495719444822730000001216517699232435132_">
										<use xlink:href="#SVGID_00000092425793109951263630000012484564307482123710_"  style="overflow:visible;"/>
									</clipPath>
									<g id="Groupe_10" style="clip-path:url(#SVGID_00000055697495719444822730000001216517699232435132_);">
										<circle id="Ellipse_2" class="st4" cx="519.86" cy="134.54" r="4.83"/>
										<path id="Tracé_12" class="st15" d="M520.01,134.71L520.01,134.71c-0.25-0.25-0.65-0.25-0.89,0c0,0,0,0,0,0l-7.37,7.37
											c-0.25,0.25-0.25,0.65,0,0.89c0.25,0.25,0.65,0.25,0.89,0l7.37-7.37C520.26,135.36,520.26,134.96,520.01,134.71
											C520.01,134.71,520.01,134.71,520.01,134.71"/>
									</g>
								</g>
							</g>
						</g>
					</g>
				</g>
			</g>
		</g>
	</g>
</g>
<path id="Rectangle_14" class="st16" d="M521.74,173.75h248.13c16.12,0,29.19,13.07,29.19,29.19v14.6
	c0,16.12-13.07,29.19-29.19,29.19H521.74c-16.12,0-29.19-13.07-29.19-29.19v-14.6C492.54,186.82,505.61,173.75,521.74,173.75z"/>
<path id="Rectangle_22" class="st16" d="M1049.01,812.32h259.08c13.1,0,23.72,10.62,23.72,23.72l0,0c0,13.1-10.62,23.72-23.72,23.72
	h-259.08c-13.1,0-23.72-10.62-23.72-23.72l0,0C1025.29,822.94,1035.91,812.32,1049.01,812.32z"/>
<path id="Rectangle_23" class="st16" d="M1148.75,864.62h165.42c9.74,0,17.64,7.9,17.64,17.64l0,0c0,9.74-7.9,17.64-17.64,17.64
	h-165.42c-9.74,0-17.64-7.9-17.64-17.64l0,0C1131.12,872.52,1139.01,864.62,1148.75,864.62z"/>
<path id="Rectangle_24" class="st16" d="M1088.54,904.76h228.67c8.06,0,14.6,6.53,14.6,14.6l0,0c0,8.06-6.53,14.6-14.6,14.6h-228.67
	c-8.06,0-14.6-6.53-14.6-14.6l0,0C1073.95,911.29,1080.48,904.76,1088.54,904.76z"/>
<path id="Rectangle_15" class="st17" d="M421.39,482.69h184.88c15.79,0,28.58,12.8,28.58,28.58l0,0c0,15.79-12.8,28.58-28.58,28.58
	H421.39c-15.79,0-28.58-12.8-28.58-28.58l0,0C392.81,495.49,405.6,482.69,421.39,482.69z"/>
<g id="Groupe_18" transform="translate(613.626)">
	<g>
		<defs>
			<rect id="SVGID_00000048494687572155101390000002565900610097525396_" x="525.55" y="90.39" width="385.27" height="258.5"/>
		</defs>
		<clipPath id="SVGID_00000146488729180659094590000016881724720209068733_">
			<use xlink:href="#SVGID_00000048494687572155101390000002565900610097525396_"  style="overflow:visible;"/>
		</clipPath>
		<g id="Groupe_17" style="clip-path:url(#SVGID_00000146488729180659094590000016881724720209068733_);">
			<path id="Tracé_13" class="st16" d="M648.06,257.78h190.48c3.63,0,6.57-2.94,6.57-6.57V96.96c0-3.63-2.94-6.57-6.57-6.57H532.12
				c-3.63,0-6.57,2.94-6.57,6.57v154.25c0,3.63,2.94,6.57,6.57,6.57h36.61c3.63,0,6.57,2.94,6.57,6.56c0,1.02-0.24,2.02-0.69,2.94
				l-21.71,43.61c-1.62,3.24-0.31,7.19,2.94,8.81c2.21,1.11,4.86,0.88,6.84-0.59l81.49-60.04
				C645.3,258.22,646.66,257.78,648.06,257.78"/>
			<path id="Tracé_14" class="st17" d="M904.93,118.85h-48.57V265.6c0,3.88-3.15,7.03-7.03,7.03H645.44c-1.5,0-2.96,0.48-4.17,1.37
				l-14.62,10.77c1.01,0.93,2.33,1.45,3.7,1.46h170.68c1.28,0.01,2.51,0.46,3.49,1.28l73.03,60.05c4.98,4.09,11.52-2.04,8.76-8.22
				l-19.46-43.61c-1.95-4.37,0.9-9.5,5.27-9.5h32.8c3.43-0.2,6.07-3.13,5.89-6.57V125.42C910.99,121.99,908.36,119.05,904.93,118.85
				"/>
		</g>
	</g>
</g>
<g id="Groupe_22" transform="translate(8.954 447.467)">
	<g>
		<defs>
			<rect id="SVGID_00000070117472845109411910000005994664685231656332_" x="394.74" y="187.19" width="230.93" height="211.38"/>
		</defs>
		<clipPath id="SVGID_00000094598089566452180100000016572013272107542956_">
			<use xlink:href="#SVGID_00000070117472845109411910000005994664685231656332_"  style="overflow:visible;"/>
		</clipPath>
		<g id="Groupe_21" style="clip-path:url(#SVGID_00000094598089566452180100000016572013272107542956_);">
			<path id="Tracé_21" class="st16" d="M509.94,207.26c-26.56-26.27-69.39-26.03-95.65,0.53s-26.03,69.39,0.53,95.65l0,0
				L511,398.57l95.13-96.18c26.27-26.56,26.03-69.39-0.53-95.65C579.04,180.47,536.21,180.7,509.94,207.26"/>
		</g>
	</g>
</g>
<g id="Groupe_24" transform="translate(26 166.531)">
	<g>
		<defs>
			<rect id="SVGID_00000125588366748439253310000010636522264874638253_" x="398.43" y="126.42" width="201.73" height="151.89"/>
		</defs>
		<clipPath id="SVGID_00000155837086657533560200000017017664567630235315_">
			<use xlink:href="#SVGID_00000125588366748439253310000010636522264874638253_"  style="overflow:visible;"/>
		</clipPath>
		<g id="Groupe_23" style="clip-path:url(#SVGID_00000155837086657533560200000017017664567630235315_);">
			<path id="Tracé_22" class="st21" d="M402.44,142.13l84.42,86.31c5.66,5.84,14.97,5.99,20.81,0.33c0.11-0.11,0.22-0.22,0.33-0.33
				l88.09-90.06"/>
			<path id="Rectangle_19" class="st22" d="M424.06,129.45h150.48c12.48,0,22.59,10.11,22.59,22.59c0,0,0,0,0,0v100.64
				c0,12.48-10.12,22.59-22.59,22.59H424.06c-12.48,0-22.59-10.12-22.59-22.59V152.04C401.46,139.56,411.58,129.45,424.06,129.45
				C424.06,129.45,424.06,129.45,424.06,129.45z"/>
		</g>
	</g>
</g>
<g id="Groupe_26" transform="translate(784 498.531)">
	<g>
		<defs>
			<rect id="SVGID_00000127021716405627808830000017586568481395611055_" x="562.4" y="198.24" width="249.99" height="249.99"/>
		</defs>
		<clipPath id="SVGID_00000069363152373883131790000016548503179678759813_">
			<use xlink:href="#SVGID_00000127021716405627808830000017586568481395611055_"  style="overflow:visible;"/>
		</clipPath>
		<g id="Groupe_25" style="clip-path:url(#SVGID_00000069363152373883131790000016548503179678759813_);">
			<path id="Tracé_23" class="st24" d="M732.82,303.86c0,25.09-20.34,45.42-45.42,45.42s-45.42-20.34-45.42-45.42
				s20.34-45.42,45.42-45.42l0,0C712.49,258.44,732.82,278.77,732.82,303.86z"/>
			<path id="Tracé_24" class="st25" d="M687.4,445.86c24.98,0.04,49.37-7.59,69.88-21.85c-5.35-38.59-40.98-65.54-79.57-60.19
				c-31.27,4.34-55.85,28.92-60.19,60.19C638.03,438.27,662.42,445.9,687.4,445.86z"/>
			<circle id="Ellipse_3" class="st26" cx="687.4" cy="323.23" r="122.63"/>
		</g>
	</g>
</g>
<line id="Ligne_19" class="st2" x1="1311.74" y1="821.71" x2="1067.56" y2="821.71"/>
<line id="Ligne_23" class="st2" x1="1323.9" y1="912.06" x2="1079.72" y2="912.06"/>
<line id="Ligne_26" class="st2" x1="1324.97" y1="874.83" x2="1151.18" y2="874.83"/>
<line id="Ligne_20" class="st2" x1="1311.74" y1="833.88" x2="1139.02" y2="833.88"/>
<line id="Ligne_22" class="st2" x1="1323.9" y1="918.14" x2="1151.18" y2="918.14"/>
<line id="Ligne_25" class="st2" x1="1324.97" y1="881.58" x2="1152.25" y2="881.58"/>
<line id="Ligne_21" class="st2" x1="1311.74" y1="846.04" x2="1079.72" y2="846.04"/>
<line id="Ligne_24" class="st2" x1="1323.9" y1="924.22" x2="1091.88" y2="924.22"/>
<line id="Ligne_27" class="st2" x1="1324.97" y1="888.34" x2="1163.35" y2="888.34"/>
<path id="Rectangle_25" class="st0" d="M879.34,352.55h72.98c19.48,0,35.27,15.79,35.27,35.27v57.17
	c0,19.48-15.79,35.27-35.27,35.27h-72.98c-19.48,0-35.27-15.79-35.27-35.27v-57.17C844.06,368.34,859.85,352.55,879.34,352.55z"/>
<path id="Rectangle_29" class="st0" d="M1043.54,603.11h38.92c19.48,0,35.27,15.79,35.27,35.27v57.17
	c0,19.48-15.79,35.27-35.27,35.27h-38.92c-19.48,0-35.27-15.79-35.27-35.27v-57.17C1008.27,618.9,1024.06,603.11,1043.54,603.11z"/>
<path id="Rectangle_30" class="st0" d="M1166.39,603.11h38.92c19.48,0,35.27,15.79,35.27,35.27v57.17
	c0,19.48-15.79,35.27-35.27,35.27h-38.92c-19.48,0-35.27-15.79-35.27-35.27v-57.17C1131.12,618.9,1146.91,603.11,1166.39,603.11z"/>
<path id="Rectangle_28" class="st0" d="M879.34,491.21h72.98c19.48,0,35.27,15.79,35.27,35.27v169.07
	c0,19.48-15.79,35.27-35.27,35.27h-72.98c-19.48,0-35.27-15.79-35.27-35.27V526.48C844.06,507,859.85,491.21,879.34,491.21z"/>
<path id="Rectangle_27" class="st0" d="M1037.46,491.21h171.5c19.48,0,35.27,15.79,35.27,35.27v30.41
	c0,19.48-15.79,35.27-35.27,35.27h-171.5c-19.48,0-35.27-15.79-35.27-35.27v-30.41C1002.18,507,1017.98,491.21,1037.46,491.21z"/>
<path id="Rectangle_26" class="st0" d="M1037.46,352.55h165.42c19.48,0,35.27,15.79,35.27,35.27v57.17
	c0,19.48-15.79,35.27-35.27,35.27h-165.42c-19.48,0-35.27-15.79-35.27-35.27v-57.17C1002.18,368.34,1017.98,352.55,1037.46,352.55z"
	/>
<g id="Groupe_20" transform="translate(739.5 228.967)">
	<g>
		<defs>
			<rect id="SVGID_00000045576527636885995850000003533338043548991364_" x="552.78" y="139.92" width="325.62" height="255.48"/>
		</defs>
		<clipPath id="SVGID_00000183932595840186837170000011716174986542679445_">
			<use xlink:href="#SVGID_00000045576527636885995850000003533338043548991364_"  style="overflow:visible;"/>
		</clipPath>
		<g id="Groupe_19" style="clip-path:url(#SVGID_00000183932595840186837170000011716174986542679445_);">
			<path id="Tracé_15" class="st16" d="M808.47,234.11c21.65,0,39.2-17.55,39.2-39.2s-17.55-39.2-39.2-39.2
				c-21.65,0-39.2,17.55-39.2,39.2S786.83,234.11,808.47,234.11L808.47,234.11"/>
			<path id="Tracé_16" class="st16" d="M718.43,230.69c25.06,0,45.38-20.32,45.38-45.38s-20.32-45.38-45.38-45.38
				s-45.38,20.32-45.38,45.38S693.37,230.69,718.43,230.69L718.43,230.69"/>
			<path id="Tracé_17" class="st17" d="M718.43,242.11L718.43,242.11c-44.73,0-80.99,36.26-80.99,80.99c0,0,0,0,0,0v72.31h161.98
				V323.1C799.42,278.37,763.16,242.11,718.43,242.11"/>
			<path id="Tracé_18" class="st17" d="M808.47,243.96L808.47,243.96c-11.2-0.01-22.24,2.68-32.18,7.85
				c22.19,17.22,35.16,43.74,35.13,71.83v52.67h66.97v-62.42C878.4,275.26,847.09,243.96,808.47,243.96L808.47,243.96"/>
			<path id="Tracé_19" class="st16" d="M622.7,236.19c-21.65,0-39.2-17.55-39.2-39.2s17.55-39.2,39.2-39.2
				c21.65,0,39.2,17.55,39.2,39.2c0,0,0,0,0,0C661.9,218.64,644.35,236.19,622.7,236.19"/>
			<path id="Tracé_20" class="st17" d="M622.7,246.03L622.7,246.03c11.2-0.01,22.24,2.68,32.18,7.85
				c-22.19,17.22-35.16,43.74-35.13,71.83v52.67h-66.97v-62.42C552.78,277.34,584.08,246.03,622.7,246.03L622.7,246.03"/>
		</g>
	</g>
</g>
<g id="Groupe_31" transform="translate(734.196 176.44)">
	<g>
		<defs>
			<rect id="SVGID_00000102514814482072893930000018087474885093021346_" x="551.63" y="128.56" width="31.29" height="24.55"/>
		</defs>
		<clipPath id="SVGID_00000125561560997979671160000007829917251071210899_">
			<use xlink:href="#SVGID_00000102514814482072893930000018087474885093021346_"  style="overflow:visible;"/>
		</clipPath>
		<g id="Groupe_19-2" style="clip-path:url(#SVGID_00000125561560997979671160000007829917251071210899_);">
			<path id="Tracé_15-2" class="st16" d="M576.2,137.61c2.08,0,3.77-1.69,3.77-3.77c0-2.08-1.69-3.77-3.77-3.77
				c-2.08,0-3.77,1.69-3.77,3.77C572.43,135.92,574.12,137.61,576.2,137.61L576.2,137.61"/>
			<path id="Tracé_16-2" class="st16" d="M567.55,137.28c2.41,0,4.36-1.95,4.36-4.36s-1.95-4.36-4.36-4.36s-4.36,1.95-4.36,4.36
				c0,0,0,0,0,0C563.19,135.33,565.14,137.28,567.55,137.28"/>
			<path id="Tracé_17-2" class="st17" d="M567.54,138.38L567.54,138.38c-4.3,0-7.78,3.49-7.78,7.78l0,0v6.95h15.57v-6.95
				C575.33,141.86,571.84,138.37,567.54,138.38L567.54,138.38"/>
			<path id="Tracé_18-2" class="st17" d="M576.2,138.55L576.2,138.55c-1.08,0-2.14,0.26-3.09,0.75c2.13,1.65,3.38,4.2,3.38,6.9
				v5.06h6.43v-6C582.92,141.56,579.91,138.55,576.2,138.55"/>
			<path id="Tracé_19-2" class="st16" d="M558.35,137.81c-2.08,0-3.77-1.69-3.77-3.77s1.69-3.77,3.77-3.77
				c2.08,0,3.77,1.69,3.77,3.77S560.43,137.81,558.35,137.81L558.35,137.81"/>
			<path id="Tracé_20-2" class="st17" d="M558.35,138.75L558.35,138.75c1.08,0,2.14,0.26,3.09,0.75c-2.13,1.66-3.38,4.2-3.38,6.9
				v5.06h-6.43v-6C551.63,141.76,554.64,138.75,558.35,138.75C558.35,138.75,558.35,138.75,558.35,138.75"/>
		</g>
	</g>
</g>
<g id="Groupe_27" transform="translate(378.646 227.114)">
	<g>
		<defs>
			<rect id="SVGID_00000032620183900621798370000015711662270818326941_" x="474.72" y="139.52" width="55.75" height="55.75"/>
		</defs>
		<clipPath id="SVGID_00000098899765476788790490000008435760376200788383_">
			<use xlink:href="#SVGID_00000032620183900621798370000015711662270818326941_"  style="overflow:visible;"/>
		</clipPath>
		<g id="Groupe_3-7" style="clip-path:url(#SVGID_00000098899765476788790490000008435760376200788383_);">
			<path id="Tracé_10-7" class="st4" d="M512.72,163.08c0,5.59-4.54,10.13-10.13,10.13c-5.59,0-10.13-4.54-10.13-10.13
				s4.54-10.13,10.13-10.13C508.18,152.95,512.72,157.48,512.72,163.08C512.72,163.08,512.72,163.08,512.72,163.08z"/>
			<path id="Tracé_11-7" class="st4" d="M502.59,194.74c5.57,0.01,11.01-1.69,15.58-4.87c-1.2-8.61-9.14-14.61-17.75-13.42
				c-6.97,0.97-12.45,6.45-13.42,13.42C491.58,193.05,497.02,194.75,502.59,194.74z"/>
			<circle id="Ellipse_1-7" class="st5" cx="502.59" cy="167.39" r="27.35"/>
		</g>
	</g>
</g>
<g id="Groupe_28" transform="translate(518.572 430.667)">
	<g>
		<defs>
			<rect id="SVGID_00000084488800698573621070000001957004438127332992_" x="504.99" y="183.55" width="78.89" height="78.89"/>
		</defs>
		<clipPath id="SVGID_00000021077752020083095570000010838010269201389752_">
			<use xlink:href="#SVGID_00000084488800698573621070000001957004438127332992_"  style="overflow:visible;"/>
		</clipPath>
		<g id="Groupe_3-8" style="clip-path:url(#SVGID_00000021077752020083095570000010838010269201389752_);">
			<path id="Tracé_10-8" class="st4" d="M558.76,216.88c0,7.92-6.42,14.33-14.33,14.33c-7.92,0-14.33-6.42-14.33-14.33
				c0-7.91,6.41-14.33,14.33-14.33C552.34,202.55,558.76,208.96,558.76,216.88C558.76,216.88,558.76,216.88,558.76,216.88z"/>
			<path id="Tracé_11-8" class="st4" d="M544.43,261.69c7.88,0.01,15.58-2.39,22.05-6.9c-1.68-12.18-12.92-20.69-25.09-19
				c-9.88,1.36-17.64,9.13-19,19C528.85,259.3,536.55,261.7,544.43,261.69z"/>
			<circle id="Ellipse_1-8" class="st5" cx="544.43" cy="223" r="38.69"/>
		</g>
	</g>
</g>
<g id="Groupe_34" transform="translate(619.572 430.667)">
	<g>
		<defs>
			<rect id="SVGID_00000005243292604266366620000015727892543302492597_" x="526.83" y="183.55" width="78.89" height="78.89"/>
		</defs>
		<clipPath id="SVGID_00000181777840895544912780000012473099341008279174_">
			<use xlink:href="#SVGID_00000005243292604266366620000015727892543302492597_"  style="overflow:visible;"/>
		</clipPath>
		<g id="Groupe_3-9" style="clip-path:url(#SVGID_00000181777840895544912780000012473099341008279174_);">
			<path id="Tracé_10-9" class="st4" d="M580.61,216.88c0,7.92-6.42,14.33-14.33,14.33c-7.92,0-14.33-6.42-14.33-14.33
				c0-7.91,6.41-14.33,14.33-14.33C574.19,202.55,580.61,208.96,580.61,216.88C580.61,216.88,580.61,216.88,580.61,216.88z"/>
			<path id="Tracé_11-9" class="st4" d="M566.28,261.69c7.88,0.01,15.58-2.39,22.05-6.9c-1.68-12.18-12.92-20.69-25.09-19
				c-9.88,1.36-17.64,9.13-19,19C550.7,259.3,558.4,261.7,566.28,261.69z"/>
			<circle id="Ellipse_1-9" class="st5" cx="566.28" cy="223" r="38.69"/>
		</g>
	</g>
</g>
<line id="Ligne_28" class="st2" x1="916.43" y1="382.35" x2="979.68" y2="382.35"/>
<line id="Ligne_29" class="st2" x1="915.83" y1="390.86" x2="979.07" y2="390.86"/>
<line id="Ligne_30" class="st2" x1="916.43" y1="399.38" x2="979.68" y2="399.38"/>
<line id="Ligne_31" class="st2" x1="916.43" y1="407.89" x2="979.68" y2="407.89"/>
<line id="Ligne_32" class="st2" x1="916.43" y1="416.4" x2="979.68" y2="416.4"/>
<line id="Ligne_33" class="st2" x1="916.43" y1="424.92" x2="979.68" y2="424.92"/>
<line id="Ligne_34" class="st2" x1="856.83" y1="432.22" x2="979.68" y2="433.43"/>
<line id="Ligne_35" class="st2" x1="856.83" y1="441.95" x2="979.68" y2="443.16"/>
<line id="Ligne_36" class="st2" x1="856.83" y1="451.68" x2="979.68" y2="452.89"/>
<line id="Ligne_37" class="st2" x1="856.83" y1="460.19" x2="916.43" y2="460.19"/>
<g id="Groupe_30" transform="translate(269.5 171.763)">
	<g>
		<defs>
			<rect id="SVGID_00000012436054434779409490000013823241585154695857_" x="451.11" y="127.55" width="100.63" height="32.8"/>
		</defs>
		<clipPath id="SVGID_00000078034587560275444490000008929090699971131837_">
			<use xlink:href="#SVGID_00000012436054434779409490000013823241585154695857_"  style="overflow:visible;"/>
		</clipPath>
		<g id="Groupe_1" style="clip-path:url(#SVGID_00000078034587560275444490000008929090699971131837_);">
			<path id="Tracé_1" class="st16" d="M457.88,141.65c1.6-1.08,2.27-3.11,1.62-4.93l-3.24-9.17h-5.15l5.63,14.87L457.88,141.65z"/>
			<path id="Tracé_2" class="st16" d="M466.04,127.55l-12.3,32.71l3.94,0.09c0.75,0.02,1.44-0.45,1.7-1.16l11.59-31.64H466.04z"/>
			<path id="Tracé_3" class="st33" d="M482.54,148.19l-0.02-10.17l-4.95,8.61h-0.29l-4.97-8.58v10.14h-0.53v-11.28h0.45l5.19,9.03
				l5.17-9.03h0.45l0.02,11.28H482.54z"/>
			<path id="Tracé_4" class="st33" d="M494.82,147.69v0.5h-7.62v-11.28h7.4v0.5h-6.85v4.8h6.13v0.5h-6.13v4.98L494.82,147.69z"/>
			<path id="Tracé_5" class="st33" d="M506.97,136.91v11.28h-0.45l-8.01-10.28v10.28h-0.55v-11.28h0.45l8.01,10.28v-10.28H506.97z"
				/>
			<path id="Tracé_6" class="st33" d="M513.24,137.4h-4.14v-0.5h8.82v0.5h-4.14v10.79h-0.53L513.24,137.4z"/>
			<path id="Tracé_7" class="st33" d="M521.58,147.51c-0.87-0.48-1.59-1.19-2.09-2.05c-1.01-1.81-1.01-4.02,0-5.84
				c0.5-0.86,1.22-1.57,2.09-2.05c1.86-0.99,4.1-0.99,5.96,0c0.87,0.48,1.6,1.18,2.1,2.05c1.01,1.81,1.01,4.02,0,5.84
				c-0.5,0.86-1.22,1.57-2.1,2.05C525.68,148.5,523.45,148.5,521.58,147.51 M527.25,147.08c0.79-0.44,1.45-1.08,1.9-1.87
				c0.92-1.65,0.92-3.67,0-5.32c-0.45-0.78-1.11-1.43-1.9-1.87c-1.68-0.9-3.7-0.9-5.37,0c-0.79,0.44-1.44,1.09-1.89,1.87
				c-0.92,1.65-0.92,3.67,0,5.32c0.45,0.78,1.1,1.43,1.89,1.87C523.55,147.98,525.57,147.98,527.25,147.08"/>
			<path id="Tracé_8" class="st33" d="M541.3,148.19l-2.79-3.88c-0.4,0.07-0.81,0.1-1.22,0.1h-3.37v3.79h-0.55v-11.28h3.92
				c1.18-0.07,2.35,0.28,3.3,0.99c0.8,0.68,1.24,1.7,1.18,2.75c0.03,0.81-0.22,1.61-0.7,2.26c-0.51,0.63-1.22,1.08-2.01,1.26
				l2.89,4.01L541.3,148.19z M537.32,143.9c1.04,0.07,2.06-0.24,2.9-0.85c1.33-1.29,1.36-3.41,0.07-4.73
				c-0.02-0.02-0.05-0.05-0.07-0.07c-0.84-0.62-1.86-0.92-2.9-0.85h-3.41v6.5L537.32,143.9z"/>
			<path id="Tracé_9" class="st33" d="M545.46,147.82c-0.65-0.23-1.24-0.62-1.7-1.13l0.29-0.39c0.43,0.47,0.97,0.83,1.57,1.06
				c0.68,0.28,1.41,0.42,2.15,0.41c0.9,0.06,1.8-0.17,2.55-0.67c0.55-0.4,0.87-1.04,0.86-1.72c0.02-0.47-0.14-0.94-0.45-1.3
				c-0.31-0.33-0.69-0.59-1.11-0.74c-0.59-0.21-1.19-0.39-1.81-0.52c-0.67-0.16-1.32-0.36-1.97-0.6c-0.49-0.19-0.92-0.49-1.26-0.89
				c-0.36-0.45-0.55-1.02-0.52-1.6c0-0.51,0.14-1.02,0.42-1.45c0.31-0.47,0.76-0.84,1.28-1.06c0.68-0.28,1.41-0.42,2.15-0.4
				c0.61,0,1.23,0.09,1.81,0.27c0.55,0.16,1.06,0.42,1.52,0.76l-0.24,0.44c-0.45-0.32-0.95-0.57-1.47-0.73
				c-0.52-0.16-1.06-0.25-1.6-0.25c-0.88-0.06-1.76,0.18-2.49,0.68c-0.54,0.41-0.86,1.05-0.85,1.73c-0.02,0.48,0.14,0.95,0.46,1.31
				c0.31,0.33,0.7,0.59,1.13,0.75c0.59,0.21,1.19,0.39,1.8,0.53c0.67,0.16,1.32,0.35,1.97,0.59c0.48,0.18,0.91,0.48,1.25,0.87
				c0.36,0.44,0.54,1,0.51,1.57c0,0.52-0.14,1.02-0.43,1.45c-0.32,0.47-0.78,0.84-1.31,1.05c-0.7,0.28-1.44,0.41-2.19,0.39
				C546.99,148.26,546.2,148.11,545.46,147.82"/>
		</g>
	</g>
</g>
<g id="Groupe_33" transform="translate(546.695 502.95)">
	<g>
		<defs>
			<rect id="SVGID_00000163777081932658056970000002150662724541110154_" x="511.07" y="199.19" width="19.1" height="21.38"/>
		</defs>
		<clipPath id="SVGID_00000081631282967814048030000011066192481425499278_">
			<use xlink:href="#SVGID_00000163777081932658056970000002150662724541110154_"  style="overflow:visible;"/>
		</clipPath>
		<g id="Groupe_32" style="clip-path:url(#SVGID_00000081631282967814048030000011066192481425499278_);">
			<path id="Tracé_25" class="st16" d="M517.42,206.79c2.1,0,3.8-1.7,3.8-3.8s-1.7-3.8-3.8-3.8s-3.8,1.7-3.8,3.8
				S515.32,206.79,517.42,206.79L517.42,206.79"/>
			<path id="Tracé_26" class="st16" d="M528.19,211.72h-0.85v-0.85c0-1.09-0.88-1.98-1.98-1.98c-1.09,0-1.98,0.88-1.98,1.98v0.85
				h-0.85c-1.09,0-1.98,0.88-1.98,1.98c0,1.09,0.88,1.98,1.98,1.98h0.85v0.85c0,1.09,0.88,1.98,1.98,1.98
				c1.09,0,1.98-0.88,1.98-1.98v-0.85h0.85c1.09,0,1.98-0.88,1.98-1.98C530.17,212.61,529.28,211.72,528.19,211.72"/>
			<path id="Tracé_27" class="st17" d="M524.61,219.75c-1.3-0.07-2.3-1.17-2.23-2.47v-1.07h-0.95c-1.36-0.14-2.35-1.36-2.22-2.72
				c0.12-1.17,1.05-2.1,2.22-2.22h0.95v-1.07c0-0.22,0.03-0.44,0.08-0.65c-2.74-2.55-7.03-2.39-9.58,0.35
				c-1.16,1.25-1.81,2.9-1.81,4.61v6.05h13.56v-0.82H524.61"/>
		</g>
	</g>
</g>
<g id="Groupe_36" transform="translate(646.911 502.95)">
	<g>
		<defs>
			<rect id="SVGID_00000155144857606678394170000000646137253814139806_" x="532.75" y="199.19" width="19.98" height="23.12"/>
		</defs>
		<clipPath id="SVGID_00000070811244380139439130000000523845380084025012_">
			<use xlink:href="#SVGID_00000155144857606678394170000000646137253814139806_"  style="overflow:visible;"/>
		</clipPath>
		<g id="Groupe_35" style="clip-path:url(#SVGID_00000070811244380139439130000000523845380084025012_);">
			<path id="Tracé_28" class="st16" d="M540.08,207.41c2.27,0,4.11-1.84,4.11-4.11c0-2.27-1.84-4.11-4.11-4.11
				c-2.27,0-4.11,1.84-4.11,4.11C535.97,205.57,537.81,207.41,540.08,207.41L540.08,207.41"/>
			<path id="Tracé_29" class="st16" d="M550.8,218.3h-6.8c-1.06,0-1.92-0.86-1.92-1.92s0.86-1.92,1.92-1.92h6.8
				c1.06,0,1.92,0.86,1.92,1.92S551.86,218.3,550.8,218.3"/>
			<path id="Tracé_30" class="st17" d="M542.1,219.33c-0.84,0-1.53-0.68-1.53-1.53c0,0,0,0,0,0v-2.89c0-0.84,0.68-1.53,1.53-1.53
				h4.91c-1.32-3.83-5.49-5.86-9.32-4.54c-2.95,1.02-4.93,3.8-4.94,6.92v6.54h14.66v-2.98H542.1z"/>
		</g>
	</g>
</g>
</svg>
